<svg width="360" height="273" viewBox="0 0 360 273" fill="none" xmlns="http://www.w3.org/2000/svg">
<path d="M185.992 125.317C182.3 126.508 174.202 127.532 171.344 122.102C167.772 115.314 169.915 118.53 167.772 110.67C166.057 104.382 165.39 100.429 165.271 99.2379C163.883 98.4274 161.939 95.6215 165.271 90.8814C169.436 84.9562 165.271 80.7928 165.271 78.3907C165.271 75.9886 165.433 67.0208 169.917 60.1348C174.401 53.2488 178.244 48.6047 192.657 48.4446M185.992 125.317C195.392 132.112 195.206 146.827 193.938 153.336M185.992 125.317C188.427 122.273 195.411 116.279 203.866 116.664C202.791 118.483 197.709 122.76 185.992 125.317ZM192.657 48.4446C192.87 53.3021 195.187 64.2021 202.745 68.9422C212.194 74.8674 206.269 84.1555 207.229 89.7604C208.19 95.3652 211.713 92.8616 209.471 99.2379C207.229 105.614 207.71 120.039 209.471 125.317M192.657 48.4446C193.253 46.931 195.503 43.9416 199.736 44.0928C199.934 43.0035 200.636 41.5678 202.085 40.3547M209.471 125.317C205.361 129.799 196.916 141.197 196.02 150.934L193.938 153.336M209.471 125.317C211.368 123.45 215.495 117.405 216.826 108.166C218.158 98.9272 221.736 98.3644 223.358 99.2379M193.938 153.336L160.08 196.012C157.535 198.1 152.569 205.065 147.342 213.014M215.042 38.4238C220.207 40.8804 230.726 49.535 231.482 64.5009C232.238 79.4669 231.797 79.9966 231.482 78.3907C228.053 79.8474 221.154 84.4085 220.988 90.9993C220.897 94.6156 222.012 97.3454 223.358 99.2379M215.042 38.4238C208.344 37.1393 204.324 38.4815 202.085 40.3547M215.042 38.4238C223.136 37.7198 230.149 43.4427 234.929 49.1509M239.195 105.045C243.273 104.545 245.888 99.1491 246.686 96.5134C247.067 94.2624 246.894 88.6972 243.148 84.4448C242.535 83.7481 241.887 83.1632 241.223 82.6743M239.195 105.045L239.819 89.7604C238.779 88.8555 236.344 88.107 234.929 92.3518C233.514 96.5967 233.438 105.287 233.577 109.102C232.814 112.986 229.956 122.003 224.629 126.997C227.196 123.702 232.328 115.761 232.328 110.351C232.328 104.941 232.328 95.8198 232.328 91.9357C231.323 90.7219 229.041 90.9161 227.959 101.403C226.877 111.89 220.988 121.24 218.179 124.604C219.482 122.189 222.342 113.736 223.358 99.2379M239.195 105.045C238.813 109.726 236.906 120.671 232.328 126.997C233.91 125.434 237.623 120.415 239.819 112.848C242.564 103.388 246.998 95.2649 248.766 95.8892C250.535 96.5134 249.599 99.9467 248.142 104.524C246.686 109.102 248.35 113.264 245.749 117.842C243.148 122.419 240.131 124.708 239.195 127.621C238.258 130.534 233.785 139.69 229.207 144.06C225.545 147.555 217.491 157.259 213.921 161.673L187.251 199.679C184.639 201.29 179.25 206.213 178.583 213.014C174.082 215.459 165.381 223.249 166.581 234.851C167.781 246.453 160.413 251.353 156.58 252.353M223.358 99.2379C224.466 100.795 225.73 101.785 226.606 102.236C224.005 97.2417 221.508 85.9222 232.328 80.5953C234.039 80.1867 237.835 80.1797 241.223 82.6743M156.58 252.353H145.078C140.133 251.02 130.709 246.019 132.576 236.684C134.955 232.682 138.292 227.196 141.866 221.53M156.58 252.353C158.006 262.658 167.965 260.757 172.767 258.518C198.191 268.415 196.02 242.111 192.56 239.472C189.1 236.833 182.142 249.663 190.476 258.518C198.81 267.373 216.826 249.924 213.921 242.111C211.017 234.298 196.02 243.934 211.311 252.353C226.603 260.773 235.532 248.622 235.271 242.111C235.011 235.6 229.207 232.735 225.518 242.111C221.828 251.486 242.954 246.447 246.283 239.472C249.611 232.498 265.304 229.803 274.498 204.758C276.885 198.254 277.659 192.701 277.431 187.961M241.223 82.6743C241.899 76.2165 242.845 62.3916 241.223 58.7548C240.401 56.9139 238.183 53.0358 234.929 49.1509M202.085 40.3547C199.675 35.1342 192.146 27.0682 181.313 36.5688C179.705 37.6262 174.746 40.6114 167.772 44.0928C159.055 48.4445 167.659 53.0088 163.918 58.7548C160.177 64.5009 158.868 65.1865 159.616 70.9848C160.364 76.7831 160.925 93.9512 156.997 99.2379C153.07 104.524 157.185 117.207 160.551 122.102C163.918 126.997 168.594 134.794 160.551 148.233C161.549 154.753 161.412 170.613 152.883 181.901C144.353 193.19 145.635 207.347 147.342 213.014M147.342 213.014C145.518 215.788 143.662 218.682 141.866 221.53M234.929 49.1509C240.563 50.8775 251.862 58.674 251.989 76.0468C252.148 97.7629 256.269 93.7738 255.159 103.311C254.05 112.848 254.424 113.138 250.087 122.808C245.749 132.477 251.746 134.855 248.142 139.927C244.539 144.999 241.223 146.991 241.223 148.962C241.223 150.934 219.222 164.46 216.826 162.753C214.43 161.046 241.686 144.524 250.087 146.743C256.808 148.518 256.269 156.042 255.159 159.582C247.392 161.537 230.59 167.001 225.518 173.214C219.177 180.981 209.471 176.226 209.471 173.214C209.4 179.52 212.078 188.157 223.358 172.263C237.459 152.396 261.658 159.265 265.304 164.021C268.003 167.541 276.783 174.449 277.431 187.961M277.431 187.961C270.792 188.922 261.498 186.433 277.431 168.793C297.348 146.743 314.11 151.359 307.024 139.927C299.939 128.495 280.168 125.679 275.561 134.933C270.955 144.187 312.462 145.622 322.5 161.079C331.396 174.779 317.768 72.3548 360.5 79.6391M141.866 221.53C141.817 219.238 140.476 215.476 135.5 218.758C129.28 222.861 135.906 223.75 137.353 220.611C138.799 217.472 143.97 214.788 134.441 208.833C124.913 202.877 127.03 201.554 121.869 201.554C121.181 201.554 120.648 201.648 120.243 201.81M123.589 203.142C124.119 206.053 121.869 206.053 121.075 206.45C120.571 206.702 118.95 204.666 119.148 203.142M123.589 203.142C124.78 205.215 127.374 209.6 128.221 210.553C129.28 211.744 130.471 215.475 123.589 213.014M123.589 203.142C125.601 207.271 124.427 216.508 123.589 220.611M119.148 203.142C118.992 202.57 118.713 202.679 118.479 205.558M119.148 203.142C119.22 202.583 119.537 202.093 120.243 201.81M118.227 210.553H111.633C111.633 209.015 112.704 203.142 112.979 198.919M118.227 210.553C118.296 208.342 118.384 206.723 118.479 205.558M118.227 210.553C118.218 210.857 118.208 211.172 118.2 211.498M119.148 221.53C117.306 221.722 113.224 221.575 111.633 219.453C109.865 220.279 105.976 221.295 104.561 218.758C103.714 218.926 102.131 218.638 102.573 216.139C100.768 216.802 96.9155 216.802 95.9432 211.498C95.3907 211.01 93.6229 209.794 90.9712 208.833C87.6565 207.631 87.4355 204.73 88.8718 203.142C90.0776 201.809 93.3078 197.39 94.706 193.653M96.8271 200.781C94.8825 203.698 94.3963 206.489 94.3963 207.52M96.8271 200.781V210.553C98.0793 212.157 100.982 213.796 102.573 207.52C102.882 206.3 103.143 205.213 103.364 204.238M96.8271 200.781C97.9885 199.039 98.3428 197.296 98.4684 195.747M98.5879 192.935C98.6214 192.432 98.6833 191.986 98.8159 191.61C99.4789 189.732 95.9432 187.632 95.2803 191.61C95.1738 192.248 94.9734 192.938 94.706 193.653M98.5879 192.935C100.349 188.515 104.561 192.052 104.561 194.704C104.561 196.943 104.561 198.946 103.364 204.238M98.5879 192.935C98.5338 193.746 98.5531 194.703 98.4684 195.747M103.364 204.238C102.965 206.81 102.406 211.981 103.364 212.091C104.561 212.229 105.463 210.712 105.532 208.298C105.575 206.769 105.924 202.11 107.015 198.919M109.738 195.747C113.048 195.816 113.255 194.697 112.979 198.919M109.738 195.747C108.526 195.722 107.646 197.075 107.015 198.919M109.738 195.747L88.3194 175.036H77.9334M112.979 198.919C109.449 203.388 107.532 200.781 107.015 198.919M112.979 198.919L118.479 205.558M105.945 215.608C107.853 216.658 111.6 217.306 111.324 211.498H118.2M98.4684 195.747C99.2397 196.437 101.299 197.402 103.364 195.747M94.706 193.653C95.0504 194.184 96.1666 195.138 97.8769 194.704M94.706 193.653L77.9334 175.036M120.243 201.81L88.8718 172.716H77.3809C76.6075 173.269 75.6352 174.506 77.9334 175.036M118.2 211.498C118.187 211.978 118.175 212.483 118.163 213.014C117.952 223.03 121.692 223.487 123.589 222.464C124.692 224.493 127.162 231.41 128.221 242.844C129.28 254.278 135.279 262.166 138.147 264.68C131.522 270.687 115.516 278.546 104.49 261.922C90.7081 241.143 93.8886 232.238 86.4674 228.421C79.0462 224.605 24.5775 217.761 29.7807 159.582C34.9839 101.403 63.3652 112.689 52.4857 78.3907C47.2825 75.2322 36.876 73.3084 36.876 90.8814C36.876 112.848 54.3778 126.363 62.8922 122.102C71.4066 117.842 84.1781 108.001 79.9209 76.0468C75.9378 46.1495 35.5146 6.03937 0 1" stroke="white" stroke-width="1.5"/>
</svg>
