<svg width="360" height="269" viewBox="0 0 360 269" fill="none" xmlns="http://www.w3.org/2000/svg">
<path d="M151.753 36.3149C152.704 36.5921 154.019 37.214 154.807 38.3747C155.912 40.0014 157.301 49.5635 151.753 48.9844M151.753 36.3149C151.239 36.1649 150.772 36.1752 150.354 36.3149M151.753 36.3149H150.354M151.753 36.3149C158.067 34.2551 157.697 45.535 156.132 47.5458C154.879 49.1544 152.691 49.1752 151.753 48.9844M151.753 36.3149C153.663 19.3589 163.025 12.1671 170.681 9.70492C174.472 8.48552 178.571 8.82397 182.399 9.92393C200.205 15.0405 205.71 28.6041 205.654 35.4357M151.753 48.9844C146.78 48.4652 146.727 37.5263 150.354 36.3149M150.354 36.3149C149.802 27.2126 153.853 8.25159 174.465 5.22595C200.23 1.4439 207.732 26.8485 208.645 36.3149M205.654 35.4357C204.703 35.3076 202.606 35.6562 201.82 38.0747C200.838 41.098 200.682 48.7241 205.654 48.2366M205.654 35.4357C207.001 35.3587 207.967 35.6926 208.645 36.3149M205.654 35.4357C204.766 35.4864 204.132 35.8305 203.679 36.3149C202.566 37.5024 202.535 39.5333 202.5 40.1532C202.274 44.159 202.503 47.684 205.654 48.2366M205.654 48.2366C209.593 48.9273 209.802 45.5398 210.021 41.9293C210.162 39.5888 209.895 37.4619 208.645 36.3149M0 67.5759C12.7023 69.0791 26.7521 73.2059 41.643 81.3283C101.554 114.007 142.403 79.5127 143.311 51.3725C144.219 23.2323 152.051 2.80511 174.465 2.80511C181.592 0.0464628 197.362 -1.60868 203.431 13.8399C211.017 33.1506 208.948 17.2884 211.707 39.7026C214.466 62.1169 223.776 79.5048 229.983 81.3283C220.558 83.3155 200.259 82.5311 194.465 63.4962C195.74 62.5344 198.387 58.7632 198.775 51.3725C199.26 42.1341 199.098 39.7026 200.23 39.7026C201.363 39.7026 197.805 23.2126 191.983 21.5953C187.325 20.3016 180.554 14.803 177.751 12.2154C175.756 15.7733 170.506 23.2126 165.46 24.5063C159.153 26.1236 156.727 32.2578 157.697 39.7026C158.668 47.1475 163.358 69.9503 171.767 72.8613C180.177 75.7723 187.94 69.2887 191.983 66.3924C192.468 71.371 194.117 81.3283 196.834 81.3283C199.551 81.3283 202.364 84.0932 203.431 85.4757C202.58 91.8367 196.608 105.012 179.53 106.823C162.452 108.634 156.35 91.9446 155.433 83.3733C155.002 94.7478 152.393 117.658 145.407 118.305C136.674 119.114 129.881 128.009 131.66 136.095C133.439 144.181 140.231 169.733 136.512 170.703C132.792 171.674 96.7282 173.453 87.9951 169.733C81.0087 166.757 77.7527 168.493 76.998 169.733C79.4623 148.582 91.7215 102.938 121.044 89.5708C157.697 72.8613 149.895 96.2973 145.407 103.024C141.816 108.405 121.758 135.229 112.177 147.969C126.826 150.007 157.057 152.861 160.791 147.969C165.46 141.854 168.067 110.056 171.767 111.585C175.467 113.113 176.017 155.001 171.767 158.059C168.368 160.505 152.777 166.861 145.407 169.733C155.529 170.38 181.766 171.48 205.737 170.703C197.492 167.711 180.079 161.911 176.385 162.645C176.555 161.374 177.159 156.386 178.213 146.593C179.53 134.353 175.638 111.585 179.53 111.585C183.422 111.585 183.682 111.434 183.422 121.852C183.161 132.269 181.859 145.438 185.245 147.969C188.63 150.5 192.277 154.593 212.33 151.281C228.373 148.631 239.85 147.052 243.583 146.593C238.51 141.905 228.688 130.133 229.983 120.549C228.96 119.106 226.394 120.196 224.31 136.095C217.626 117.82 206.601 81.6914 215.976 83.3733C227.696 85.4757 232.124 82.0046 240.458 93.7243C248.792 105.444 257.907 121.331 263.897 129.665C269.887 137.999 268.064 161.548 269.626 166.126C271.189 170.703 265.98 170.703 259.99 170.703C254 170.703 208.684 158.573 212.33 176.804C215.976 195.034 215.456 213.005 227.957 211.442C240.458 209.879 264.157 191.909 273.273 199.722C282.388 207.535 264.418 234.621 267.022 239.309C268.672 237.746 273.377 233.892 279.002 230.975C286.034 227.329 295.149 207.796 287.857 199.722C280.565 191.649 279.523 182.533 245.927 194.514C219.05 204.098 188.367 225.94 176.385 235.663C180.814 243.302 199.777 254.727 240.197 239.309C244.538 236.704 254.261 233.579 258.428 241.913C263.636 252.331 254.261 263.79 241.76 263.79C231.759 263.79 213.577 263.79 205.737 263.79C204.115 265.353 199.829 268.269 195.662 267.436C190.454 266.394 186.547 259.883 182.38 260.925C178.213 261.967 114.666 239.309 107.114 239.309C99.5609 239.309 97.217 238.007 96.1752 246.341C95.1335 254.675 99.5315 262.227 112.177 263.79C124.823 265.353 126.386 258.06 139.929 258.581C153.471 259.102 153.471 260.925 159.462 260.925C165.452 260.925 171.963 248.164 168.837 241.913C165.712 235.663 164.555 223.422 138.366 215.349C112.177 207.275 111.801 200.764 103.988 197.639C96.1752 194.514 82.1116 184.357 70.1315 201.285C58.1514 218.213 61.0162 215.609 72.7359 230.975C82.1116 243.267 88.4489 245.125 90.4456 244.518C81.8512 236.184 68.3605 217.901 83.1534 211.442C101.644 203.368 104.77 218.995 114.406 217.172C124.042 215.349 129.803 207.015 133.157 197.639C136.512 188.263 136.255 180.45 148.523 183.054C160.791 185.659 210.768 194.774 240.197 186.961C269.627 179.148 308.486 188.668 316 199.722C329.878 220.139 336.402 220.56 360 233.347" stroke="white" stroke-width="1.5"/>
</svg>
