<svg width="360" height="260" viewBox="0 0 360 260" fill="none" xmlns="http://www.w3.org/2000/svg">
<path d="M0 228.881C32.5 244.881 70.6238 260.23 110.213 247.196C149.802 234.162 133.921 245.47 140.873 252.601C146.435 258.305 141.408 257.948 138.199 257.057C119.482 231.21 116.76 200.193 116.76 188.072C116.76 175.951 109.143 165.79 106.648 164.72C104.152 163.651 104.509 168.999 110.213 178.446C114.776 186.004 115.798 207.621 115.739 217.484C109.559 217.781 89.6067 215.309 59.2319 203.045C21.2633 187.715 27.6805 183.259 30.1761 167.038C32.6717 150.816 51.745 141.191 49.4277 145.469C47.1104 149.747 60.4796 153.49 62.0839 156.521C63.6882 159.551 74.5618 161.155 82.2268 156.521C89.8918 151.886 83.1181 149.925 72.7793 148.499C62.4404 147.073 62.4404 137.345 55.8449 130.674C49.2495 124.002 42.1192 133.704 41.941 140.024C41.7627 146.344 47.2887 143.508 45.8627 136.006C44.4366 128.504 56.0232 132.1 60.4796 133.704C64.936 135.308 98.8047 108.57 108.609 102.669C118.413 96.7687 112.891 99.0973 117.653 91.6561C122.415 84.2148 138.488 77.6969 141.465 79.3365C144.441 80.9761 140.87 82.4289 135.214 86.0007C129.559 89.5725 131.791 92.6978 136.405 90.7631C141.019 88.8284 157.538 81.8336 157.538 86.0007C157.538 90.1678 146.674 90.1678 136.405 95.2279C126.136 100.288 141.911 97.4602 153.073 91.6561C164.235 85.8519 161.705 95.2278 157.538 97.4602C153.371 99.6926 142.06 104.939 148.46 106.092C154.859 107.245 166.17 100.586 166.17 106.092C166.17 111.599 137.893 118.296 127.922 118.147C117.951 117.998 110.063 128.416 93.3946 139.578C76.7262 150.739 97.4129 155.204 116.76 147.019C132.238 140.471 156.149 137.841 166.17 137.345C169.593 154.311 175.099 172.468 179.564 173.063C184.029 173.658 188.196 155.948 194.149 154.758C200.102 153.567 217.961 171.426 221.235 169.045C224.509 166.664 206.055 150.293 201.888 148.805C197.721 147.316 189.269 146.424 184.029 140.024C178.789 133.625 188.345 131.392 191.172 124.844C194 118.296 190.428 115.617 182.392 117.403C174.355 119.189 167.212 134.964 169.341 136.006C171.471 137.048 178.296 121.421 184.029 120.379C188.615 119.546 189.433 113.943 189.269 111.246C167.45 93.7145 172.999 78.5797 169.341 73.1565C166.415 68.8178 161.143 75.4687 158.873 79.3365C161.228 86.0631 167.122 100.601 171.864 104.939C176.606 109.278 178.128 105.234 178.296 102.669C168.206 97.246 162.531 79.7149 162.026 69.625C161.623 61.5531 168.417 39.0191 171.864 28.7611C155.417 43.6941 153.408 67.607 154.459 77.6969C143.612 77.0663 147.551 61.5531 150.045 59.409C152.538 57.2649 153.198 50.9588 150.045 48.5625C146.892 46.1661 135.541 58.6523 134.658 49.5714C133.951 42.3067 140.165 42.77 143.36 43.9097V34.4444H128.982V47.8057C128.099 51.7017 119.649 56.6343 117.631 48.5625C116.017 42.105 122.742 42.0881 126.307 42.8869V35.3195C124.802 32.8543 120.835 27.612 117 26.3648C112.208 24.8058 117.052 27.9238 116 34.4444C114.948 40.965 117.683 36.7581 110.952 34.4444C104.221 32.1306 108.848 34.6547 101.276 38.8615C93.7036 43.0684 88.2349 40.5443 88.6555 32.1306C88.9921 25.3997 96.0876 26.5215 99.5933 27.9238V4.57576C101.837 3.38384 106.829 2.17794 108.848 6.88969C110.868 11.6014 119.786 11.5171 123.993 10.886C118.945 17.6168 108.287 17.8974 103.59 17.1964V30.8686C107.292 28.5128 110.04 29.887 110.952 30.8686C109.269 29.3261 106.913 25.5259 110.952 22.6653C114.99 19.8046 122.871 26.9422 126.307 30.8686V24.7687H147.551C147.271 31.4295 146.878 44.5828 147.551 43.9097C148.392 43.0684 151.968 36.9685 155.334 38.8615C158.699 40.7546 168.165 32.1306 169.006 18.8789C169.679 8.27751 180.785 2.54239 186.254 1C183.519 1.42068 183.519 9.20327 187.516 10.886C191.512 12.5687 186.675 4.15508 190.671 4.57576C194.668 4.99645 200.347 12.148 197.402 13.4101C194.457 14.6721 199.716 15.0928 195.719 18.8789C192.522 21.9077 183.029 17.6169 178.682 15.0928C181.75 17.542 187.114 23.3417 184.029 26.9476C180.172 31.455 171.864 44.7399 171.864 55.6525C171.864 66.5651 171.084 72.4958 169.341 67.7512C167.599 63.0066 170.622 29.1265 180.646 26.9476C190.671 24.7687 200.099 18.0824 209.114 24.7687C218.129 31.455 216.468 43.8447 222.636 48.5625C228.804 53.2802 228.804 48.2983 230.702 55.6525C232.6 63.0066 231.177 51.8959 242.564 55.6525C251.673 58.6577 251.42 60.7004 250.155 61.346C253.081 57.8225 256.608 48.3927 247.308 38.8615C235.684 26.9476 221.45 24.3477 213.859 18.8789C206.267 13.4101 211.768 9.88053 221.235 15.0928C230.702 20.3052 242.089 27.0422 247.308 30.7433C252.527 34.4444 262.017 45.9501 259.881 57.7876C257.746 69.625 261.542 79.1023 255.848 77.6969C250.155 76.2915 251.816 54.9408 255.848 61.346C259.881 67.7512 258.695 93.136 247.308 90.7631C235.921 88.3903 227.855 76.0934 232.125 67.7512C236.396 59.409 239.717 85.5435 233.549 93.3721C227.381 101.201 213.104 113.455 201.888 112.351C190.671 111.246 189.486 109.978 197.402 109.029C205.318 108.08 207.453 110.111 217.417 102.669C227.381 95.2278 230.702 88.1541 232.125 90.7631C233.549 93.3721 228.567 97.6794 233.549 109.029C238.531 120.379 240.428 125.787 242.564 131.566C244.699 137.345 232.6 156.242 228.33 162.643C224.914 167.765 225.641 170.787 226.432 171.658C231.572 162.056 242.564 144.042 245.41 148.805C248.969 154.758 244.461 161.694 247.308 166.202C249.586 169.808 259.012 173.082 263.44 174.268C262.807 163.763 260.783 140.516 257.746 131.566C253.951 120.379 246.359 107.298 237.819 112.351C238.135 113.068 240.476 115.213 247.308 118.058C255.848 121.614 250.112 135.068 255.848 137.546C261.585 140.024 277.495 139.171 293.681 148.805C309.866 158.439 317.533 191.321 318.044 195.581C318.453 198.988 323.099 238.913 325.371 258.45C312.396 258.394 285.661 258.053 282.515 257.127C278.582 255.971 284.365 212.711 290.149 198.368C295.932 184.025 299.5 193.381 307.036 175.697C312.619 162.596 341.698 136.659 360.5 132.881" stroke="white" stroke-width="1.5"/>
</svg>
