<svg width="360" height="278" viewBox="0 0 360 278" fill="none" xmlns="http://www.w3.org/2000/svg">
<path d="M248.03 133.224C250.662 129.817 256.603 115.063 259.31 83.2995C262.017 51.5356 240.35 27.1525 229.177 18.9315C224.84 8.08806 147.49 -18.6591 116.66 25.0761C91.9949 60.0642 98.5653 106.228 104.934 124.936C105.531 111.496 113.588 105.805 117.542 104.639C107.131 110.991 99.7204 135.87 119.13 159.338C134.657 178.112 153.714 170.925 161.301 164.984C132.187 167.808 118.424 143.281 116.66 133.224C114.895 123.166 110.66 112.932 124.07 103.58C137.481 94.2283 160.948 123.695 162.536 133.224C164.124 142.752 170.829 153.692 152.302 153.515C133.775 153.339 115.084 111.873 134.128 112.932C153.172 113.991 160.948 138.164 165.36 156.691C169.771 175.218 159.878 185.06 148.419 185.407C136.96 185.754 120.64 176.726 115.084 181.934C114.407 182.569 113.504 183.01 112.483 183.354C99.8994 187.592 117.542 200.138 117.542 186.86V186.86C117.542 172.955 87.5874 155.032 54.5238 193.04C29.485 221.823 30 152 -0.5 155M248.03 133.224C247.73 131.396 246.632 126.975 244.646 123.907C250.719 116.103 261.043 93.9414 253.756 67.7269C252.31 52.4256 239.298 19.0037 198.816 7.72658C158.334 -3.55058 127.177 18.2086 116.66 30.4978C110.227 39.2012 98.2124 62.8026 101.618 87.5813L104.934 112.932C106.642 109 111.03 101.187 114.917 101.391C108.097 81.1026 105.096 35.2061 147.651 13.9287C200.845 -12.6681 240.229 39.7582 242.275 48.7091C244.32 57.6599 257.363 83.8101 237.671 112.932C242.888 130.542 241.605 166.04 194.739 167.152C205.053 172.315 228.254 177.98 238.545 159.338C251.409 136.036 244.456 116.393 232.113 111.178C219.771 105.963 195.956 120.565 190.741 136.036C185.526 151.507 183.788 159.338 197.173 159.338C210.558 159.338 226.725 136.731 227.768 130.995C228.811 125.259 230.375 109.865 206.039 123.907C181.702 137.948 186.569 170.453 196.304 177.93C206.039 185.407 216.799 187.143 230.723 188.36C244.646 189.577 266.184 253.764 272.756 259.022C278.015 263.229 280.863 272.387 281.63 276.44H189.041C185.165 271.687 175.049 265.031 165.591 276.44H162.241C164.146 272.458 170.241 265.045 179.385 267.252C188.528 269.459 191.471 272.638 191.799 273.952C194.098 269.945 214.225 264.099 276.338 272.769C260.639 267.777 221.752 259.921 191.799 268.434C197.777 263.836 222.028 256.689 271.214 264.887C249.341 259.369 200.746 251.645 181.355 264.887C183.983 257.126 204.845 245.088 267.273 259.022L238.545 204.39C225.131 197.559 194.322 187.995 178.399 204.39L179.385 263.508H176.823V204.39C172.645 197.033 154.448 186.26 115.084 202.025L85.7817 255.428C111.794 249.122 165.985 242.186 174.655 264.887C166.576 257.596 136.623 246.836 81.4464 262.128C105.159 258.121 154.792 253.536 163.62 267.252C146.542 262.916 105.448 257.872 77.7022 272.375C101.743 268.779 151.954 264.558 160.467 276.44H70.6082L106.867 209.119M248.03 133.224C250.647 139.347 264.889 179.039 291 167.152C353.919 138.51 327.5 211.5 360.5 223" stroke="white" stroke-width="1.5"/>
</svg>
