<svg width="360" height="287" viewBox="0 0 360 287" fill="none" xmlns="http://www.w3.org/2000/svg">
<path d="M109.47 92.3817H90.0841C80.2321 92.3817 69.7445 100.963 69.7445 109.225V165.795L71.9692 216.644C77.3158 227.529 86.6352 230.309 107.246 233.17C133.503 230.45 147.973 229.253 169.218 233.17C172.498 233.796 166.455 250.746 162.544 255C141.251 307.5 55.0878 240.145 32.5003 275.5C17.4332 299.084 99.9817 277.267 56.5003 255C43.5901 248.389 18.5806 226.539 -1 223.7M109.47 92.3817C114.237 79.0338 98.9827 72.3599 98.3471 87.6146L168.264 15.7904C167.417 14.3073 166.103 10.5784 167.629 7.52742L172.714 1.80691C173.667 0.853584 175.842 0.615063 177.163 1.80691L186.379 9.75216C187.333 10.7056 187.651 12.9302 185.744 14.2014L179.07 19.922C177.34 21.0293 176.262 20.6676 174.303 19.6042L105.339 89.8393L109.47 92.3817ZM109.47 92.3817H122.5C147.607 93.3352 178.752 125.116 182.248 144.502C189.01 182.003 169.854 213.784 138.073 216.644C99.3006 216.644 79.2787 194.398 79.2787 163.57C80.5499 109.225 149.832 92.3817 168.264 132.425C177.505 150.385 175.593 160.942 172.078 179.778C170.899 160.871 168.264 141.642 163.815 132.425C161.007 152.044 162.301 166.112 162.544 188.995C159.131 194.863 157.32 198.884 152.692 196.304C151.942 167.988 151.903 152.327 152.692 124.798C149.196 120.349 143.158 116.535 142.522 123.209C143.4 154.197 142.996 171.353 141.251 201.707C141.251 207.428 131.399 209.97 131.399 201.707C130.483 168.944 130.599 150.563 131.399 117.806C125.996 116.217 121.865 117.806 121.547 122.891C119.579 154.626 119.782 172.857 121.547 205.839C116.121 206.601 111.059 204.567 111.059 199.482C111.557 169.999 111.586 153.313 111.059 123.209M111.059 123.209C104.893 125.613 102.932 127.785 100.254 132.108M111.059 123.209C129.133 122.295 139.033 122.256 156.188 123.209C168.9 123.915 175.574 133.379 190.193 132.425H276.001C281.086 132.425 283.946 129.883 283.946 125.751V113.357C283.946 109.543 279.179 106.683 276.001 106.683H195.914C193.053 106.683 189.24 110.179 189.24 113.675V124.48C189.24 127.658 192.736 129.247 197.185 129.247C201.9 128.274 203.239 123.983 204.494 113.039L205.448 126.387L208.626 114.628C209.534 117.504 209.955 119.168 210.533 122.256C211.732 119.587 211.97 117.86 212.122 114.628C212.738 118.184 213.143 120.023 214.029 122.891C216.978 121.069 217.202 118.881 217.842 114.628C218.669 118.488 219.183 120.564 220.702 123.209C222.852 119.241 222.894 115.998 222.927 110.179L223.881 127.34C225.933 122.577 226.875 119.698 228.33 114.31C228.626 118.367 229.03 120.347 230.555 122.891C231.795 119.881 232.214 118.125 232.779 114.946C232.957 118.47 233.135 120.325 233.733 123.209C235.562 120.134 236.256 118.215 237.229 114.628C236.838 118.921 236.924 120.82 238.818 121.302M100.254 132.108C98.9969 151.136 98.8001 162.04 100.254 182.321M100.254 132.108C122.467 130.415 134.922 130.276 157.141 131.472C163.497 131.472 165.033 134.669 164.769 142.277C138.575 143.309 123.75 143.496 96.7581 142.277C92.9444 142.277 92.9444 152.447 96.7581 153.083C123.886 150.956 139.398 151.013 167.311 152.129C174.658 151.812 176.21 161.981 172.078 162.617C142.169 164.404 125.396 164.8 95.4869 162.617C86.5883 165.159 86.1995 172.787 95.4869 172.787C120.793 172.311 135.068 172.345 160.637 172.787C168.582 172.787 170.489 182.321 166.675 182.321C140.735 183.828 126.194 184.227 100.254 182.321M100.254 182.321V183.592C95.9407 180.341 94.0768 178.017 92.3088 172.469V140.37C85.8194 156.606 80.8677 166.748 91.6731 186.452C97.6279 195.527 101.078 197.946 107.246 201.707C125.614 202.827 135.911 202.645 154.281 201.707L161.273 196.304C162.862 195.033 162.226 193.444 159.684 193.444C136.478 192.398 123.461 192.29 100.254 193.444C93.8979 186.452 95.4869 182.321 100.254 182.321ZM238.818 121.389C240.793 119.804 241.311 118.45 241.678 115.582C243.96 118.478 244.677 121.53 245.81 127.34V111.768C246.989 117.908 247.665 121.185 249.305 121.938C249.842 122.131 251.629 117.902 252.166 115.582V123.527C254.795 121.214 255.743 119.475 256.933 115.582C257.56 119.997 258.144 121.714 259.475 123.845C259.479 119.751 259.983 117.707 262.018 114.628C263.109 118.343 263.399 120.345 263.607 123.845C264.613 120.29 265.347 118.799 267.42 118.442C274.504 120.59 279.805 121.632 278.544 124.798C253.221 138.782 237.794 143.331 210.533 152.129C192.1 163.57 197.82 186.452 212.757 186.452C233.097 187.406 235.957 163.57 221.656 156.261C218.354 154.573 215.828 154.153 213.608 156.261M213.608 156.261C213.32 156.535 213.037 156.852 212.757 157.214C211.833 165.269 210.85 175.647 213.393 175.965C217.207 176.441 216.889 159.439 213.608 156.261ZM213.608 156.261C209.426 154.921 204.177 162.299 203.223 166.748C201.952 174.058 206.401 183.274 214.982 183.592C223.245 183.592 228.966 174.376 237.229 175.329C249.444 175.81 248.988 186.452 264.56 186.452C278.861 182.003 281.086 163.253 276.001 159.121C274.127 157.934 272.179 157.668 270.281 158.026M270.281 158.026C262.521 159.49 255.588 171.38 257.886 173.422C261.461 176.6 273.776 161.664 270.281 158.026ZM270.281 158.026C264.56 150.222 246.763 155.625 246.763 167.066C246.127 176.283 251.448 181.581 264.56 181.367C274.73 180.414 279.179 168.973 276.954 154.672C287.369 154.448 288.896 158.303 291.574 167.702L290.938 114.628C289.985 104.776 282.896 96.1968 269.963 94.6064L145.382 91.4283L269.963 90.1571C281.722 90.1571 294.116 101.28 294.116 114.628L292.527 212.83C292.527 221.729 283.628 232.852 262.653 232.852C183.971 236.416 247.089 223.169 294.116 235.5C324.714 243.523 320 197.5 331.5 189C347 177.543 316.163 238.568 319 195.5C321.024 164.786 341.256 149.805 360 135.811" stroke="white" stroke-width="1.5"/>
</svg>
