<svg width="33" height="33" viewBox="0 0 33 33" fill="none" xmlns="http://www.w3.org/2000/svg">
<path d="M29.9826 13.8071H28.875V13.75H16.5V19.25H24.2708C23.1371 22.4517 20.0908 24.75 16.5 24.75C11.9439 24.75 8.25 21.0561 8.25 16.5C8.25 11.9439 11.9439 8.25 16.5 8.25C18.6031 8.25 20.5164 9.04337 21.9732 10.3393L25.8624 6.45012C23.4066 4.16144 20.1217 2.75 16.5 2.75C8.90656 2.75 2.75 8.90656 2.75 16.5C2.75 24.0934 8.90656 30.25 16.5 30.25C24.0934 30.25 30.25 24.0934 30.25 16.5C30.25 15.5781 30.1551 14.6781 29.9826 13.8071Z" fill="#FFC107"/>
<path d="M4.33594 10.1001L8.8535 13.4131C10.0759 10.3868 13.0363 8.25 16.5006 8.25C18.6036 8.25 20.5169 9.04338 21.9738 10.3393L25.8629 6.45013C23.4072 4.16144 20.1223 2.75 16.5006 2.75C11.2192 2.75 6.63906 5.73169 4.33594 10.1001Z" fill="#FF3D00"/>
<path d="M16.4988 30.25C20.0504 30.25 23.2775 28.8908 25.7174 26.6805L21.4618 23.0794C20.0349 24.1645 18.2914 24.7514 16.4988 24.75C12.9224 24.75 9.88569 22.4695 8.74169 19.2871L4.25781 22.7418C6.53344 27.1947 11.1548 30.25 16.4988 30.25Z" fill="#4CAF50"/>
<path d="M29.9826 13.8071H28.875V13.75H16.5V19.25H24.2708C23.7285 20.7738 22.7517 22.1053 21.461 23.0801L21.4631 23.0787L25.7187 26.6798C25.4176 26.9534 30.25 23.375 30.25 16.5C30.25 15.5781 30.1551 14.6781 29.9826 13.8071Z" fill="#1976D2"/>
</svg>
