<svg width="128" height="202" viewBox="0 0 128 202" fill="none" xmlns="http://www.w3.org/2000/svg">
<path d="M70.8028 140.567H68.4687L68.6057 187.318C68.0565 195.436 59.9555 200.471 55.1499 195.131C67.0967 195.131 66.1342 180.155 55.6994 180.155C45.5387 180.807 45.2639 191.876 51.7175 197.475C58.1712 203.075 70.8028 198.778 70.8028 187.318V140.567Z" fill="#F3F3F3" stroke="#F3F3F3" stroke-width="1.63784" stroke-linejoin="round"/>
<path d="M61.7162 16.4645C62.9807 9.46897 63.3882 5.0012 66.6478 2.60303C70.9471 6.10077 68.8677 11.1991 70.9471 16.4645C77.6491 33.435 115.585 32.5282 90.8002 70.4852C76.8904 98.7262 62.7277 117.789 45.0244 112.847C21.8231 106.37 11.5378 105.429 9.23799 119.583C8.60573 137.72 30.3719 137.331 54.2553 121.915C85.3628 97.5603 133.794 95.6171 123.552 124.635C116.518 139.743 107.745 133.963 74.7407 133.963C62.9806 134.74 45.7829 140.699 52.6114 165.313C59.9457 183.838 81.0634 174.381 80.4311 161.167C79.5179 142.083 55.3934 149.12 61.3367 167.515C41.1042 140.311 88.0099 131.022 85.3628 163.758C83.5924 185.652 49.5156 183.102 47.8062 162.463C47.6031 160.01 42.3852 132.562 80.4311 129.947C118.477 127.332 117.608 123.599 117.608 123.599C118.62 106.629 97.8816 97.3012 66.1419 123.21C39.1879 145.213 4.30632 146.011 2.15664 121.915C0.0069592 97.8194 45.0244 106.499 45.0244 106.499C45.0244 106.499 63.6127 110.385 56.9109 93.933C50.209 77.4807 28.9758 56.413 33.8965 45.3532C38.8172 34.2934 60.4516 23.4599 61.7162 16.4645Z" fill="#F3F3F3"/>
<path d="M66.6478 18.4076C51.4617 35.0933 39.3337 42.6328 41.2306 50.276C44.1289 57.5036 46.4702 60.9904 52.2322 66.2101C59.8194 73.5943 64.1468 62.7164 61.7161 54.4216C46.921 24.1077 88.777 26.0509 71.0736 54.4216C67.7433 59.7586 76.0054 71.7806 81.9487 66.2101C87.892 60.6397 91.5613 56.3832 91.6856 48.851C91.1313 44.0592 85.2078 37.676 66.6478 18.4076ZM66.6478 18.4076V2.60303M66.6478 2.60303C63.3882 5.0012 62.9807 9.46897 61.7162 16.4645C60.4516 23.4599 38.8172 34.2934 33.8965 45.3532C28.9758 56.413 50.209 77.4807 56.9109 93.933C63.6127 110.385 45.0244 106.499 45.0244 106.499C45.0244 106.499 0.00695931 97.8194 2.15664 121.915C4.30632 146.011 39.1879 145.213 66.1419 123.21C97.8816 97.3012 118.62 106.629 117.608 123.599C117.608 123.599 118.477 127.332 80.4311 129.947C42.3852 132.562 47.6031 160.01 47.8062 162.463C49.5156 183.102 83.5924 185.652 85.3628 163.758C88.0099 131.022 41.1042 140.311 61.3367 167.515C55.3934 149.12 79.5179 142.083 80.4311 161.167C81.0634 174.381 59.9457 183.838 52.6114 165.313C45.7829 140.699 62.9806 134.74 74.7407 133.963C107.745 133.963 116.518 139.743 123.552 124.635C133.794 95.6171 85.3628 97.5603 54.2553 121.915C30.3719 137.331 8.60573 137.72 9.23799 119.583C11.5378 105.429 21.8231 106.37 45.0244 112.847C62.7277 117.789 76.8904 98.7262 90.8002 70.4852C115.585 32.5282 77.6491 33.435 70.9471 16.4645C68.8677 11.1991 70.9471 6.10077 66.6478 2.60303Z" stroke="#F3F3F3" stroke-width="1.63784" stroke-linejoin="round"/>
<path d="M70.8525 52.3163C88.1076 25.1787 47.3115 23.32 61.7319 52.3163C64.1011 60.2505 59.8832 70.6556 52.4882 63.5924C46.8721 58.5996 44.5901 55.2643 41.7652 48.3509C39.9164 41.0399 51.7372 33.8281 66.5388 17.8677C84.6288 36.2985 90.4023 42.4043 90.9425 46.9878C90.8214 54.1926 87.245 58.2641 81.4522 63.5924C75.6594 68.9208 67.6065 57.4213 70.8525 52.3163Z" fill="black" stroke="black" stroke-width="1.63784" stroke-linejoin="round"/>
</svg>
