<svg width="64" height="64" viewBox="0 0 64 64" fill="none" xmlns="http://www.w3.org/2000/svg">
<g clip-path="url(#clip0_570_246)">
<rect x="0.5" y="0.078125" width="63" height="63" rx="31.5" fill="url(#paint0_linear_570_246)"/>
<g clip-path="url(#clip1_570_246)">
<path d="M46.0293 35.3278L45.9066 35.4337C45.6742 35.6343 45.4745 35.8033 45.312 35.9348L45.2697 35.9698L45.1357 36.0782L45.058 36.1405L44.9836 36.2003L44.9361 36.237H44.9309C44.9223 36.2438 44.9145 36.249 44.9093 36.2541L44.8963 36.2635C44.8963 36.2635 46.2696 30.5222 45.3648 26.718C45.134 27.1312 44.9724 27.5982 44.6613 27.9628C44.5849 28.0542 44.5017 28.1398 44.4124 28.2189C44.1773 28.4249 43.9129 28.5957 43.6277 28.726C43.3388 28.8581 43.0378 28.9627 42.7289 29.0385C42.6692 29.0538 42.6096 29.0675 42.5491 29.0811C42.4195 29.1119 42.2898 29.1392 42.1559 29.1665C41.7914 29.2631 41.4132 29.2992 41.0367 29.2732H41.0315C40.5376 29.237 40.0665 29.0533 39.6807 28.7465C39.5584 28.6484 39.4445 28.5405 39.3402 28.4238V28.4195C39.1606 28.2166 39.006 27.9934 38.8796 27.7545C38.7427 27.5018 38.6362 27.2342 38.5624 26.9571L38.6852 26.765V26.7607L39.2409 25.8899L42.8473 25.9804H42.9432C43.9535 25.9616 44.6457 25.9326 45.1193 25.9019C44.8142 25.0687 44.3614 24.3806 43.7106 23.9452C43.1634 23.5658 42.6843 23.0986 42.2933 22.563C41.0056 23.1743 40.3056 23.4688 39.9245 23.6088L38.1441 26.2826C37.8981 27.3092 37.9127 28.3799 38.1865 29.3996C39.0326 32.6104 40.723 33.4197 40.9347 34.6721C40.9347 34.6721 38.3611 31.2009 37.9704 30.4181C37.7224 29.9229 37.4623 28.3939 37.8339 26.7471L28.3594 40.9598C29.38 41.7392 30.4733 42.4487 31.506 42.8764C34.3156 44.04 34.6432 45.044 35.6984 45.5349C35.7597 45.563 35.8237 45.5895 35.8911 45.6151C36.0872 45.6868 36.2897 45.7397 36.4961 45.7731C37.6023 45.9634 38.9159 45.75 39.7723 45.5528L39.8052 45.5443C40.5562 44.1783 41.0203 42.2002 43.7098 39.5093C45.3207 37.8966 45.904 36.3335 46.1045 35.2629L46.0293 35.3278ZM40.9304 35.1827C40.9391 35.1161 41.1672 36.2379 39.5528 37.2077C39.9867 36.9362 40.8034 36.284 40.933 35.1827H40.9304ZM39.5476 37.212L39.4742 37.2572C39.4051 37.2982 39.3515 37.3255 39.3204 37.3426L39.3048 37.3503C39.3904 37.3042 39.4716 37.2581 39.5485 37.212H39.5476ZM38.0387 36.9251C37.2462 35.986 35.9386 36.103 35.9386 36.103C37.5642 35.5967 38.0396 36.9251 38.0396 36.9251H38.0387ZM31.5052 40.305C31.5052 40.305 31.143 39.4308 32.3581 39.0654C32.359 39.0654 31.4982 39.5742 31.506 40.305H31.5052ZM39.2599 40.3707L39.1199 40.3758C39.0706 40.3758 39.0205 40.381 38.9721 40.3844L38.8277 40.3955C38.7128 40.4057 38.5979 40.4185 38.4864 40.4339L38.4475 40.439L38.3377 40.4552L38.2202 40.474L38.1545 40.4851C38.126 40.4851 38.0975 40.4945 38.0681 40.5005L37.9376 40.5252L37.8106 40.5517C37.7397 40.5662 37.6714 40.5825 37.604 40.5987L37.5323 40.6157L37.4459 40.6362L37.3594 40.6593L37.2791 40.6806L37.1728 40.7105C37.0863 40.7353 36.9999 40.76 36.9264 40.7839L36.84 40.8121L36.8253 40.8172L36.7839 40.8309L36.7164 40.8531L36.6776 40.8659L36.6404 40.8787L36.605 40.8915C36.5935 40.8948 36.5822 40.8988 36.5713 40.9034L36.528 40.9188L36.4883 40.9333C36.3846 40.9709 36.3154 40.9999 36.2783 41.0136H36.2731L36.3526 40.9709L36.4321 40.9299C36.5427 40.8736 36.6508 40.8215 36.7571 40.7728L36.8331 40.7387L36.9135 40.7037L37.0163 40.6601L37.1166 40.6192C37.1831 40.5927 37.2488 40.5679 37.3128 40.544C37.3767 40.5201 37.4268 40.5039 37.4856 40.486L37.6031 40.4476C37.655 40.4313 37.706 40.416 37.7561 40.4023C37.7711 40.3973 37.7864 40.393 37.8019 40.3895C37.8607 40.3724 37.9186 40.3579 37.9748 40.3443L38.0932 40.3169L38.2064 40.293L38.317 40.2726L38.4242 40.2546C38.4472 40.2501 38.4705 40.2467 38.4942 40.2444L38.6013 40.2307L38.6877 40.2213H38.7068L38.7932 40.2145C38.8203 40.2145 38.8471 40.2128 38.8736 40.2094H38.9038H38.9902C39.87 40.1855 40.3324 40.4535 40.3324 40.4535C39.9791 40.3889 39.6199 40.3611 39.2607 40.3707H39.2599ZM40.4827 38.5438C38.3956 39.2481 37.3257 39.1303 36.1495 38.9868C34.9733 38.8434 34.4055 38.7393 32.7678 39.5093C32.7678 39.5093 33.9172 38.4524 36.2947 38.7649C38.6722 39.0773 40.3289 38.338 40.9477 38.2526C41.5665 38.1673 42.7081 38.175 42.8326 38.8724C42.8066 38.7888 42.4739 37.8719 40.4836 38.5438H40.4827ZM43.0754 39.4171C43.8861 38.6744 43.4937 38.0512 43.4375 37.9658C44.1972 38.8904 43.1247 39.3941 43.0746 39.4171H43.0754Z" fill="#E2906C"/>
<path d="M39.4797 23.7183C39.9832 22.6932 40.5687 21.7094 41.2306 20.7763C39.7174 17.6483 39.2905 13.7477 39.2905 13.7477C39.2905 13.7477 38.5507 13.3208 38.4141 15.0009C38.4141 15.0009 37.5802 14.8806 37.4255 13.8245C37.4445 15.0692 37.3166 18.3706 35.6192 21.0282C36.289 22.0091 36.4489 23.1898 36.4835 23.5834C36.4921 23.6688 36.4938 23.7191 36.4938 23.7191C36.4938 23.7191 35.4377 23.5373 33.7214 23.1044C33.4207 23.3327 33.1029 23.5382 32.7707 23.7191C32.7707 23.7191 32.9963 23.4511 33.3169 23.0011C32.9833 22.9158 32.6255 22.8193 32.2531 22.7143C31.8945 23.1525 31.4975 23.5584 31.0665 23.9274C30.5549 24.3594 30.1547 24.9442 29.8479 25.6204C29.7392 25.8614 29.6435 26.1079 29.561 26.3588C29.6829 26.3588 29.8082 26.3546 29.9369 26.3546C31.7872 26.3546 33.6203 26.5048 34.647 26.6064C35.099 26.6508 35.3954 26.6866 35.468 26.6918C35.3963 26.6918 35.1033 26.6807 34.672 26.6696C34.672 26.6696 34.4577 28.2788 32.6688 29.0386C33.03 28.9508 33.3865 28.8451 33.7369 28.7219C33.6203 28.7936 31.1443 30.2774 29.0243 29.3571C28.8973 31.5375 29.2499 33.6658 29.7554 34.5648C29.9784 34.8294 30.115 34.9677 30.115 34.9677C29.9591 34.8695 29.8345 34.7298 29.7554 34.5648C28.931 33.5873 26.9303 30.8835 26.315 27.052L26.1914 27.0418C26.227 27.0178 26.2639 26.9959 26.302 26.9761C26.123 25.8266 26.0841 24.66 26.1862 23.5014L26.1292 23.5236C25.5856 26.7379 25.0255 31.9387 26.5881 34.1097C28.2785 36.46 28.9751 37.1106 29.2309 37.2916C27.9283 36.5699 26.7505 35.6477 25.742 34.5596C25.8816 35.9801 25.9258 37.408 25.8742 38.8342C26.5811 39.4984 27.4428 40.2582 28.3615 40.9608L37.8325 26.7319C38.0511 25.7008 38.5317 24.7415 39.2291 23.9445C38.7089 24.6355 38.3396 25.4256 38.1445 26.2649L39.9205 23.5911C39.5298 23.737 39.4797 23.7183 39.4797 23.7183ZM29.2317 37.2924C29.3182 37.3368 29.3605 37.359 29.3605 37.359C29.3605 37.359 29.3277 37.3564 29.2317 37.2898V37.2924Z" fill="#C1775D"/>
<path d="M52.4341 17.5835C50.761 13.6299 41.5613 10.4976 40.118 8.65787C38.6748 6.8181 33.8774 3.60726 28.7249 5.84059C23.5724 8.07392 23.021 9.56025 23.021 9.56025C21.602 10.1143 19.9902 10.8733 18.9756 12.0266C17.7864 13.3755 18.6783 15.1931 17.9679 17.0166C17.2575 18.8402 16.5411 19.9679 17.0172 23.7192C17.4934 27.4704 18.6221 37.9567 13.8066 41.0232C13.8066 41.0232 15.2516 41.5867 16.5583 39.4421C15.8825 41.4125 15.3925 44.6413 17.9083 47.3399C17.9083 47.3399 16.4157 40.9968 17.6844 39.0657C17.6844 39.0657 17.439 45.6956 19.9133 47.3399L22.0505 48.5735L22.1464 48.629L22.1922 48.6709L23.3434 42.0255L23.4454 41.4398C25.2118 43.7662 27.3655 45.3354 28.3801 46.003C27.3949 45.2961 25.5281 43.5058 25.7926 40.2079C25.8298 39.7375 25.8557 39.2799 25.8712 38.8377C25.9228 37.4115 25.8786 35.9835 25.739 34.5631C26.7476 35.6512 27.9253 36.5734 29.2279 37.295C28.9686 37.114 28.2773 36.4635 26.5851 34.1132C25.0226 31.9431 25.5826 26.7422 26.1262 23.5271C26.178 23.2223 26.2299 22.9355 26.2792 22.6734C26.2792 22.6734 26.2982 20.4904 30.4845 17.3803C34.6708 14.2702 35.1072 12.1538 35.1072 12.1538C35.1072 12.1538 35.701 14.3855 35.344 16.5386C35.6776 17.7235 35.3786 19.0553 34.8817 20.248C34.4613 21.2225 33.9357 22.1493 33.314 23.0123C33.454 23.0482 33.5897 23.0832 33.721 23.1156C34.475 22.541 35.1189 21.8379 35.6223 21.0394C37.3197 18.3817 37.4476 15.0804 37.4285 13.8357C37.4056 13.6677 37.3989 13.4978 37.4087 13.3286C37.4087 13.3286 37.4234 13.513 37.4285 13.8357C37.5832 14.8917 38.4172 15.0121 38.4172 15.0121C38.5538 13.3286 39.2935 13.7588 39.2935 13.7588C39.2935 13.7588 39.7205 17.6595 41.2337 20.7875C41.3121 20.9509 41.3939 21.1116 41.4792 21.2699C41.7175 21.7187 41.9902 22.1488 42.295 22.5564C42.686 23.0921 43.1651 23.5592 43.7123 23.9386C44.3631 24.374 44.816 25.0621 45.121 25.8953C45.4081 25.8818 45.6943 25.8533 45.9783 25.8099C46.1244 25.7843 46.1417 25.7664 46.1417 25.7664C46.1417 25.7664 46.2955 25.979 46.0172 26.1369C45.8909 26.2019 45.754 26.2444 45.6128 26.2624C45.6128 26.2624 45.5324 26.4332 45.3682 26.7268C46.273 30.5344 44.8998 36.28 44.8998 36.28L44.9127 36.2706C44.9179 36.2655 44.9257 36.2603 44.9344 36.2535H44.9395L44.9871 36.2168L45.0614 36.157L45.1392 36.0947L45.2731 35.9863L45.3155 35.9513C45.4762 35.8198 45.6776 35.6508 45.9101 35.4502L46.0328 35.3443L46.1071 35.2794C46.2644 35.142 46.4329 34.9917 46.6101 34.8295C46.636 34.8064 46.6619 34.7834 46.6879 34.7586L46.9385 34.5273C47.5763 33.9297 48.2971 33.2134 49.0023 32.416C49.2054 31.2567 49.8328 30.4354 50.7653 27.2715C52.1532 22.5598 46.8019 18.1879 44.8998 16.1134C42.9976 14.0389 44.0615 13.3149 44.0615 13.3149C43.9405 15.0369 48.0663 18.0522 51.6727 23.1805C53.6518 25.9978 51.4135 29.6611 48.9979 32.4007C48.8986 32.9667 48.9003 33.6146 49.017 34.6553C49.3739 37.8269 49.0584 44.7958 43.39 47.3408C43.39 47.3408 47.1736 42.6453 45.4736 38.4424C45.233 38.7485 44.9594 39.0279 44.6578 39.2757C42.9743 40.651 41.633 43.2446 41.0324 44.5346C41.0177 44.567 41.0021 44.5986 40.9848 44.6293V44.6345C40.9693 44.6635 40.9529 44.6925 40.9347 44.7198C40.9166 44.7472 40.9019 44.7719 40.8846 44.7975C40.8805 44.8044 40.8759 44.811 40.8708 44.8172C40.8569 44.8377 40.8422 44.8581 40.8267 44.8778L40.8103 44.8983C40.7982 44.9145 40.7852 44.9299 40.7714 44.9452C40.7614 44.9583 40.7508 44.9709 40.7394 44.9828C40.7299 44.9939 40.7195 45.005 40.7092 45.0152C40.6988 45.0255 40.6884 45.0374 40.678 45.0477C40.6677 45.0579 40.6357 45.0895 40.6141 45.11C40.5925 45.1305 40.5631 45.1552 40.5372 45.1766C40.5112 45.1979 40.5043 45.2039 40.487 45.2158C40.4698 45.2278 40.4672 45.2312 40.4568 45.2389C40.4469 45.247 40.4365 45.2544 40.4257 45.2611C40.4032 45.2773 40.3799 45.2927 40.3565 45.308C40.3306 45.3246 40.3047 45.3399 40.2788 45.3541C40.2644 45.3634 40.2493 45.3716 40.2338 45.3789H40.2286L40.1846 45.402C40.156 45.4156 40.1275 45.4293 40.0981 45.4412L40.0653 45.4557L40.023 45.472L40.0005 45.4805H39.9953C39.9762 45.4883 39.9565 45.4949 39.9365 45.5001H39.927L39.9011 45.5087H39.8925C39.876 45.5141 39.8593 45.5187 39.8423 45.5223L39.8276 45.5266L39.8086 45.5317L39.7758 45.5403C38.9159 45.7375 37.6057 45.9509 36.4995 45.7605C36.2932 45.7272 36.0906 45.6743 35.8945 45.6026L35.7779 45.676C36.1141 46.3547 36.5764 47.2255 37.2108 48.3447C38.7041 50.9793 38.9392 52.8882 38.8381 54.0886C39.9694 52.9471 42.6182 50.3979 44.3847 49.6757C44.3847 49.6757 43.6311 52.3777 41.6105 53.1213C41.6105 53.1213 45.5402 54.5726 48.6479 46.779C48.6479 46.779 51.0427 42.9031 50.0523 36.7171C49.0619 30.531 52.2604 32.9855 52.8602 28.5675C53.4599 24.1495 54.1064 21.5388 52.4341 17.5835ZM21.6504 32.0617C21.0212 32.0993 21.0316 31.4496 20.6798 30.3287C20.2477 28.9388 19.4907 28.3515 20.2036 26.5424C20.7792 25.0851 22.1525 25.8552 22.6632 26.2086C22.2063 28.1377 21.868 30.0923 21.6504 32.0617Z" fill="#161326"/>
<path d="M33.7221 23.1043C33.4214 23.3326 33.1036 23.5381 32.7715 23.719C32.7715 23.719 32.997 23.4509 33.3177 23.001C33.4551 23.0368 33.5908 23.0718 33.7221 23.1043Z" fill="#161326"/>
<path d="M41.4755 21.2587L39.9199 23.5911C39.5267 23.7371 39.4766 23.7183 39.4766 23.7183C39.98 22.6932 40.5655 21.7094 41.2275 20.7764C41.3081 20.9397 41.3908 21.1005 41.4755 21.2587Z" fill="#161326"/>
<path d="M42.2907 22.5453C41.003 23.1566 40.303 23.4511 39.9219 23.5912L41.4775 21.2588C41.715 21.7075 41.9868 22.1376 42.2907 22.5453Z" fill="#2E2D33"/>
<path d="M34.8815 20.2368C34.6417 20.0498 34.3749 19.8996 34.0898 19.7911C34.6051 18.7421 35.0248 17.6499 35.3438 16.5273C35.6774 17.7123 35.3784 19.0441 34.8815 20.2368Z" fill="#C1775D"/>
<path d="M34.8816 20.2367C34.4612 21.2112 33.9356 22.138 33.3139 23.001C32.9803 22.9156 32.6225 22.8192 32.25 22.7142C32.9754 21.8132 33.5928 20.8323 34.0899 19.791C34.375 19.8995 34.6418 20.0497 34.8816 20.2367Z" fill="#161326"/>
<path d="M36.4931 23.7192C36.4931 23.7192 35.4371 23.5374 33.7207 23.1046C34.4747 22.53 35.1186 21.8268 35.622 21.0283C36.2918 22.0092 36.4517 23.1899 36.4862 23.5835C36.4914 23.6706 36.4931 23.7192 36.4931 23.7192Z" fill="#161326"/>
<path d="M46.0126 26.1248C45.8864 26.1898 45.7494 26.2323 45.6082 26.2503C45.4885 26.2666 45.3678 26.2755 45.2469 26.2768C45.2072 26.2768 45.1648 26.2768 45.1208 26.2768H45.0136C44.782 26.2768 44.5037 26.2768 44.1935 26.2768H43.9411H43.8944C42.2394 26.2614 39.8965 26.258 38.7661 26.7122C38.7393 26.7224 38.7143 26.7335 38.6892 26.7446L38.6797 26.7489L38.6875 26.7446L38.6978 26.7395L38.7168 26.7292C38.7341 26.7198 38.7575 26.7079 38.786 26.6951L38.8102 26.6831L38.8318 26.6729L38.869 26.6558L38.9355 26.6268L38.9804 26.608L39.0807 26.5687L39.1369 26.5474L39.2691 26.5004C39.3002 26.4893 39.3322 26.4782 39.3667 26.468L39.4255 26.4492L39.5491 26.4116C39.7427 26.3553 39.9717 26.2964 40.2405 26.2409L40.422 26.2042C40.4851 26.1922 40.5499 26.1803 40.6164 26.1692L40.7944 26.1402C40.9863 26.1111 41.1926 26.0841 41.4132 26.0591C41.4997 26.0497 41.5913 26.0403 41.6846 26.0317L41.8263 26.0198C42.1375 25.9942 42.4748 25.9768 42.8383 25.9677H42.9343C43.9446 25.9489 44.6368 25.9199 45.1104 25.8892C45.3975 25.8756 45.6837 25.8472 45.9677 25.8038C46.1138 25.7782 46.131 25.7603 46.131 25.7603C46.131 25.7603 46.2909 25.9669 46.0126 26.1248Z" fill="#161326"/>
<path d="M40.9331 34.6577C40.9331 34.6577 38.3594 31.1864 37.9688 30.4036C37.7208 29.9084 37.4606 28.3794 37.8322 26.7326C38.0507 25.7011 38.5313 24.7416 39.2288 23.9443C38.7086 24.6353 38.3393 25.4255 38.1442 26.2647C37.8982 27.2913 37.9127 28.362 38.1866 29.3817C39.0309 32.5925 40.7214 33.4018 40.9331 34.6577Z" fill="#772F33"/>
<path d="M39.5547 37.208C39.9868 36.9365 40.8026 36.2843 40.9323 35.183C40.9409 35.1164 41.1691 36.2382 39.5547 37.208Z" fill="#772F33"/>
<path d="M38.0395 36.9255C37.247 35.9864 35.9395 36.1033 35.9395 36.1033C37.5642 35.5971 38.0395 36.9255 38.0395 36.9255Z" fill="#772F33"/>
<path d="M42.8324 38.8762C42.8056 38.7909 42.4728 37.8723 40.4825 38.5442C38.3954 39.2485 37.3255 39.1307 36.1493 38.9872C34.9731 38.8438 34.4053 38.7397 32.7676 39.5097C32.7676 39.5097 33.917 38.4528 36.2945 38.7653C38.672 39.0777 40.3287 38.3384 40.9475 38.253C41.5663 38.1677 42.7079 38.1788 42.8324 38.8762Z" fill="#772F33"/>
<path d="M40.3255 40.4486C38.4856 40.1071 36.3708 40.9753 36.2637 41.0214C38.8875 39.6145 40.3255 40.4486 40.3255 40.4486Z" fill="#772F33"/>
<path d="M43.0742 39.4171C43.8849 38.6744 43.4925 38.0512 43.4363 37.9658C44.1968 38.8904 43.1243 39.3941 43.0742 39.4171Z" fill="#772F33"/>
<path d="M32.3586 39.0654C32.3586 39.0654 31.4943 39.5777 31.5056 40.305C31.5056 40.305 31.1435 39.4308 32.3586 39.0654Z" fill="#772F33"/>
<path d="M22.663 26.2061C22.2061 28.1351 21.8678 30.0897 21.6502 32.0592C21.021 32.0968 21.0314 31.4471 20.6796 30.3261C20.2475 28.9363 19.4905 28.3489 20.2034 26.5399C20.779 25.0852 22.1523 25.8552 22.663 26.2061Z" fill="#B26D57"/>
<path d="M35.7717 45.689C34.8358 46.2866 33.6207 47.2991 33.1272 48.7035C33.1099 48.7282 33.0918 48.7538 33.0736 48.7812C32.3278 48.9954 31.4195 49.1158 30.4809 48.9084C28.7248 48.5199 25.0363 44.0968 23.3398 42.0214L23.4418 41.4358C25.2083 43.7621 27.362 45.3313 28.3766 45.9989C28.5568 46.1308 28.7466 46.2495 28.9444 46.354C28.8813 46.3156 28.6851 46.1978 28.3835 46.0032C27.3983 45.2963 25.5315 43.506 25.796 40.2081C25.8331 39.7377 25.8591 39.2801 25.8746 38.8379C26.5816 39.5021 27.4432 40.2619 28.3619 40.9645C29.3825 41.7439 30.4758 42.4534 31.5085 42.8811C34.3181 44.0447 34.6457 45.0487 35.7009 45.5396L35.7717 45.689Z" fill="#A6554B"/>
<path d="M34.4351 55.6806C32.7473 58.6934 22.9461 49.3733 22.1934 48.6673L23.3445 42.022C25.0401 44.0974 28.7295 48.5205 30.4856 48.9089C31.4216 49.1164 32.3299 48.9943 33.0783 48.7817L33.061 48.8082C33.0532 48.8201 33.0446 48.8329 33.0368 48.8466C33.0169 48.8782 32.9971 48.9115 32.978 48.9465L32.9443 49.008C32.9348 49.025 32.9262 49.043 32.9167 49.0609C32.8745 49.1443 32.8367 49.2298 32.8035 49.317C32.7931 49.3443 32.7819 49.3725 32.7724 49.4024C32.7019 49.6026 32.651 49.809 32.6203 50.0188C32.6142 50.0597 32.6082 50.1041 32.6038 50.1443C32.5995 50.1844 32.5952 50.2296 32.5917 50.2689C32.5913 50.2769 32.5913 50.2848 32.5917 50.2928C32.5917 50.3133 32.5917 50.3355 32.5917 50.3568C32.583 50.4907 32.5813 50.6249 32.5865 50.7589C32.5865 50.811 32.5865 50.8639 32.5952 50.9177C32.6038 50.9715 32.603 51.0262 32.609 51.0816C32.6151 51.1371 32.6211 51.1935 32.6289 51.2524C32.6631 51.5002 32.7127 51.7457 32.7775 51.9874C33.1198 53.3005 33.6799 54.5485 34.4351 55.6806Z" fill="#C1775D"/>
<path d="M50.7621 27.2553C52.15 22.5437 46.7987 18.1718 44.8966 16.0972C42.9944 14.0227 44.0626 13.3149 44.0626 13.3149C43.9416 15.0369 48.0674 18.0522 51.6738 23.1805C53.6529 25.9978 51.4146 29.6611 48.9991 32.4007C49.2021 31.2431 49.8296 30.4192 50.7621 27.2553Z" fill="#F49F35"/>
<path d="M46.9341 34.5112C46.8659 35.2856 46.5884 37.0263 45.4736 38.4383C45.2329 38.7444 44.9594 39.0238 44.6578 39.2716C42.9743 40.6469 41.633 43.2405 41.0323 44.5305C41.0176 44.5629 41.0021 44.5945 40.9848 44.6252V44.6304C40.9692 44.6594 40.9528 44.6884 40.9347 44.7157C40.9165 44.7431 40.9018 44.7678 40.8846 44.7934C40.8804 44.8003 40.8758 44.8069 40.8707 44.8131C40.8569 44.8336 40.8422 44.854 40.8267 44.8737L40.8102 44.8942C40.7981 44.9104 40.7852 44.9258 40.7713 44.9411C40.7614 44.9542 40.7507 44.9668 40.7394 44.9787C40.7299 44.9898 40.7195 45.0009 40.7091 45.0111C40.6987 45.0214 40.6884 45.0333 40.678 45.0436C40.6676 45.0538 40.6357 45.0854 40.6141 45.1059C40.5924 45.1264 40.5631 45.1511 40.5371 45.1725C40.5112 45.1938 40.5043 45.1998 40.487 45.2117C40.4697 45.2237 40.4671 45.2271 40.4568 45.2348C40.4469 45.2429 40.4365 45.2503 40.4257 45.257C40.4032 45.2732 40.3798 45.2886 40.3565 45.304C40.3306 45.3205 40.3047 45.3358 40.2787 45.35C40.2643 45.3593 40.2493 45.3675 40.2338 45.3748H40.2286L40.1845 45.3979C40.156 45.4115 40.1275 45.4252 40.0981 45.4371L40.0653 45.4516L40.0229 45.4679L40.0005 45.4764H39.9953L39.9365 45.496H39.927L39.9011 45.5046H39.8924C39.876 45.51 39.8592 45.5146 39.8423 45.5182L39.8276 45.5225L39.8086 45.5276C40.5596 44.1617 41.0237 42.1836 43.7132 39.4927C45.3241 37.88 45.9074 36.3168 46.1079 35.2463C46.2652 35.1088 46.4338 34.9586 46.6109 34.7964C46.6368 34.7733 46.6628 34.7503 46.6887 34.7255L46.9341 34.5112Z" fill="#F8F4A9"/>
<path d="M43.3906 47.34C43.3906 47.34 47.1742 42.6445 45.4743 38.4417C46.5909 37.0262 46.8665 35.2829 46.9348 34.5146C47.5726 33.917 48.2934 33.2007 48.9986 32.4033C48.8992 32.9693 48.9009 33.6173 49.0176 34.658C49.3745 37.8261 49.0591 44.7951 43.3906 47.34Z" fill="#24213C"/>
<path d="M49.3337 63.0783H48.4254C48.4185 61.7738 47.0686 59.094 44.1285 58.3828C42.4993 57.9954 40.9768 57.2573 39.6699 56.2212C41.0095 56.8077 43.2582 57.7118 45.608 58.3051C49.3337 59.2451 49.3337 63.0783 49.3337 63.0783Z" fill="#A2D8DB"/>
<path d="M48.4261 63.0784H5.5V56.2785C6.84733 51.4353 12.9514 50.3417 16.6485 50.0557C18.9949 49.8739 20.5721 49.3027 21.4113 48.9092C22.7707 50.375 30.14 58.0542 33.8233 56.4219L33.9235 56.3758C34.0031 56.3374 34.0791 56.2973 34.1508 56.2546C34.1802 56.2384 34.2079 56.2213 34.2373 56.2034L34.2736 56.1803C34.2995 56.1641 34.3237 56.147 34.3479 56.1299C34.3721 56.1129 34.4015 56.0924 34.4274 56.0727L34.4412 56.0625C34.4697 56.0403 34.4983 56.0181 34.5276 55.9951C34.557 55.972 34.583 55.9481 34.6097 55.9242L34.6728 55.8653C34.7304 55.8084 34.7849 55.7515 34.8362 55.6945C34.8488 55.6807 34.8606 55.6661 34.8716 55.651C34.8811 55.6399 34.8906 55.6288 34.8993 55.6169C34.9079 55.6049 34.9321 55.575 34.9468 55.5537C35.0109 55.4659 35.0686 55.3737 35.1196 55.2779C35.1326 55.254 35.1447 55.2301 35.1568 55.2062C35.1926 55.1313 35.2247 55.0546 35.2527 54.9766L35.2752 54.9159L35.3037 54.8306C35.5846 54.8801 35.8992 54.9894 36.1394 55.0525L38.4115 55.6433C38.4115 55.6433 38.8842 55.8781 39.6689 56.2221C40.9758 57.2582 42.4983 57.9964 44.1275 58.3838C47.0693 59.0941 48.4192 61.7739 48.4261 63.0784Z" fill="#B8DFE5"/>
<path d="M33.7341 28.7255C33.6174 28.7972 31.1414 30.281 29.0214 29.3607C28.216 29.0115 27.4598 28.3157 26.9023 27.065C27.0605 27.065 27.2307 27.0556 27.3967 27.0377C27.433 27.0377 27.4693 27.03 27.5047 27.0249C27.76 27.812 28.3189 28.4681 29.0603 28.851C29.8381 29.2531 30.9893 29.4486 32.6659 29.0422C33.0271 28.9544 33.3836 28.8487 33.7341 28.7255Z" fill="#161326"/>
<path d="M29.753 34.565C28.9285 33.5875 26.9278 30.8837 26.3125 27.0522C26.4413 27.0599 26.6582 27.071 26.9028 27.0676C27.4602 28.3183 28.2164 29.0141 29.0218 29.3633C28.8948 31.5411 29.2474 33.6694 29.753 34.565Z" fill="#24213C"/>
<path d="M34.6686 26.6729C33.4112 26.6405 30.9801 26.5927 29.4634 26.6593C28.7945 26.6883 28.3027 26.7395 28.1671 26.824C27.962 26.9357 27.7357 27.0041 27.5025 27.0247C27.467 27.0298 27.4307 27.0341 27.3944 27.0375C27.2285 27.0554 27.0583 27.0631 26.9001 27.0648C26.6547 27.0648 26.4386 27.0571 26.3098 27.0494L26.2969 26.9734C26.4896 26.8701 26.9494 26.667 27.7782 26.5218C28.3656 26.4225 28.9599 26.3679 29.5559 26.3588C29.6777 26.3588 29.803 26.3545 29.9318 26.3545C31.7821 26.3545 33.6151 26.5047 34.6418 26.6063L34.6686 26.6729Z" fill="#161326"/>
<path d="M34.6703 26.673C34.6703 26.673 34.456 28.2823 32.667 29.0421C30.9904 29.4468 29.8419 29.253 29.0615 28.8509C28.32 28.4679 27.7611 27.8119 27.5059 27.0248C27.7391 27.0042 27.9654 26.9358 28.1704 26.8242C28.3035 26.7388 28.7953 26.6884 29.4668 26.6594C29.6535 26.6509 29.8548 26.6449 30.0657 26.6398C31.0319 26.6167 32.2073 26.6252 33.2158 26.6398C33.7715 26.6517 34.2779 26.6628 34.6703 26.673Z" fill="white"/>
<path d="M38.8719 27.7428C38.7349 27.4901 38.6285 27.2225 38.5547 26.9454L38.6774 26.7533V26.749H38.6843C38.6766 26.9074 38.6873 27.0661 38.7163 27.222L38.7241 27.2647C38.7241 27.2741 38.7241 27.2835 38.7301 27.2928C38.7362 27.3022 38.7344 27.3159 38.737 27.3278C38.7396 27.3398 38.7465 27.3714 38.7526 27.3936C38.7586 27.4158 38.769 27.4576 38.7785 27.4901C38.8046 27.576 38.8358 27.6604 38.8719 27.7428Z" fill="#161326"/>
<path d="M45.6097 26.2505C45.6097 26.2505 45.5293 26.4212 45.3651 26.7149C45.1344 27.1281 44.9728 27.5951 44.6616 27.9596C44.5853 28.051 44.5021 28.1366 44.4127 28.2158C44.1776 28.4217 43.9133 28.5926 43.628 28.7229C43.3391 28.8549 43.0382 28.9595 42.7292 29.0353C42.6696 29.0507 42.61 29.0644 42.5495 29.078C42.4198 29.1087 42.2902 29.1361 42.1562 29.1634C42.2473 29.1406 42.3406 29.1141 42.4363 29.084C42.4959 29.0652 42.5538 29.0456 42.6091 29.0259H42.6143C42.8251 28.9536 43.032 28.8704 43.2339 28.7766H43.2391C44.3142 28.144 44.8682 26.7175 45.0134 26.2915H45.1205C45.1646 26.2915 45.207 26.2915 45.2467 26.2915C45.3685 26.2854 45.4897 26.2718 45.6097 26.2505Z" fill="#161326"/>
<path d="M42.8416 25.9652C42.4781 25.9738 42.1407 25.9911 41.8296 26.0173C41.4476 26.0481 41.1045 26.0899 40.7977 26.1377L40.6197 26.1667C40.1966 26.2363 39.7792 26.3365 39.3709 26.4664C39.3363 26.4766 39.3043 26.4877 39.2732 26.4988C39.2266 26.5142 39.1825 26.5304 39.141 26.5458C39.0632 26.574 38.9967 26.6013 38.9396 26.6252L38.8731 26.6542L38.8359 26.6713L38.8143 26.6815C38.7495 26.7114 38.7089 26.7336 38.6907 26.7438H38.6855L39.2412 25.873L42.8416 25.9652Z" fill="#161326"/>
<path d="M45.018 26.2812C44.8729 26.7081 44.3189 28.1338 43.2438 28.7664H43.2386C43.0366 28.8602 42.8298 28.9434 42.619 29.0157H42.6138C42.5567 29.0353 42.4988 29.055 42.4409 29.0738C42.3447 29.1039 42.2514 29.1304 42.1609 29.1532C41.7964 29.2498 41.4182 29.2858 41.0417 29.2599H41.0366C40.5426 29.2236 40.0715 29.0399 39.6858 28.7331C39.5634 28.635 39.4495 28.5271 39.3453 28.4104V28.4061C39.1656 28.2032 39.011 27.98 38.8846 27.7411C38.8493 27.6576 38.819 27.572 38.7939 27.485C38.7844 27.4525 38.7757 27.4201 38.768 27.3885C38.7602 27.3569 38.7567 27.3441 38.7524 27.3228C38.7481 27.3014 38.7472 27.2989 38.7455 27.2878C38.7438 27.2767 38.7412 27.269 38.7394 27.2596L38.7317 27.2169C38.7027 27.061 38.692 26.9023 38.6997 26.744C38.7248 26.7329 38.7498 26.7218 38.7766 26.7115C39.2227 26.5521 39.6872 26.4486 40.1594 26.4033C41.11 26.2872 42.2508 26.2684 43.2516 26.2718L43.9023 26.2761H43.949H44.2014C44.5038 26.2812 44.7821 26.2829 45.018 26.2812Z" fill="white"/>
<path d="M35.3047 54.8269L35.2762 54.9122L35.252 54.9763C35.2225 55.0544 35.1891 55.1311 35.1518 55.2059C35.1397 55.2298 35.1276 55.2537 35.1146 55.2776C35.0636 55.3734 35.0059 55.4656 34.9418 55.5534C34.9271 55.5747 34.9107 55.5961 34.8942 55.6165C34.8778 55.637 34.8761 55.6396 34.8666 55.6507C34.8571 55.6618 34.8441 55.6797 34.8311 55.6942C34.7804 55.754 34.726 55.8109 34.6678 55.865L34.6047 55.9239C34.5779 55.9478 34.5511 55.9717 34.5226 55.9947C34.4941 56.0178 34.4673 56.04 34.4362 56.0622L34.4224 56.0724C34.3964 56.0921 34.3696 56.1109 34.3429 56.1296C34.3161 56.1484 34.2945 56.1638 34.2685 56.18L34.2322 56.2031C34.2046 56.221 34.1769 56.2381 34.1458 56.2543C34.0741 56.297 33.998 56.3396 33.9185 56.3755L33.8183 56.4216C30.1332 58.0531 22.7657 50.3739 21.4062 48.9089C21.6253 48.8073 21.8383 48.6932 22.044 48.5674L22.14 48.6229L22.1858 48.6647C22.9385 49.3707 32.7406 58.6908 34.4275 55.678C34.5275 55.4912 34.5953 55.2892 34.628 55.0804C34.6842 54.7893 34.9703 54.7654 35.3047 54.8269Z" fill="#8DD3D3"/>
<path d="M34.6349 55.079C34.6021 55.2878 34.5344 55.4897 34.4344 55.6766C33.6767 54.5465 33.1136 53.3003 32.7682 51.9885C32.7034 51.7467 32.6537 51.5012 32.6195 51.2534C32.6118 51.1962 32.6049 51.1399 32.5997 51.0827C32.5945 51.0255 32.5893 50.9726 32.5858 50.9188C32.5824 50.865 32.5789 50.8121 32.5772 50.76C32.5719 50.6259 32.5737 50.4917 32.5824 50.3579C32.5824 50.3365 32.5824 50.3143 32.5824 50.2939C32.5819 50.2859 32.5819 50.2779 32.5824 50.2699C32.5824 50.2273 32.5893 50.1846 32.5945 50.1453C32.5997 50.106 32.6049 50.0599 32.6109 50.0198C32.6416 49.81 32.6926 49.6036 32.763 49.4034C32.7725 49.3744 32.7837 49.3462 32.7941 49.318C32.8274 49.2308 32.8651 49.1453 32.9073 49.0619C32.9168 49.044 32.9255 49.0261 32.935 49.009L32.9687 48.9475C32.9877 48.9125 33.0076 48.8792 33.0275 48.8477C33.0352 48.8348 33.043 48.822 33.0517 48.8092L33.0689 48.7828C33.0871 48.7555 33.1052 48.7298 33.1225 48.7051L33.0983 48.7742C32.8386 49.5672 32.8319 50.4199 33.0793 51.2167C34.2745 55.2873 34.6349 55.079 34.6349 55.079Z" fill="#C1775D"/>
<path d="M35.3452 16.5277C35.0261 17.6502 34.6065 18.7424 34.0912 19.7914C33.5941 20.8327 32.9767 21.8136 32.2513 22.7146C31.8928 23.1527 31.4957 23.5587 31.0647 23.9277C30.5531 24.3597 30.1529 24.9445 29.8461 25.6206C29.7374 25.8616 29.6417 26.1081 29.5592 26.3591C28.9633 26.3683 28.3689 26.4228 27.7815 26.5221C26.9527 26.6673 26.4929 26.8705 26.3002 26.9738C26.1212 25.8243 26.0823 24.6577 26.1844 23.4991C26.2077 23.2251 26.2388 22.9468 26.2803 22.665C26.2803 22.665 26.2993 20.4821 30.4857 17.372C34.672 14.2619 35.1084 12.1455 35.1084 12.1455C35.1084 12.1455 35.7021 14.3746 35.3452 16.5277Z" fill="#24213C"/>
<path d="M24.5249 26.3548C24.5595 26.1926 22.526 33.2085 23.4464 36.4765C24.3668 39.7446 24.7228 41.0217 24.7228 41.0217C24.7228 41.0217 23.6296 36.3971 23.958 34.7332C24.2864 33.0693 23.296 32.091 24.5249 26.3548Z" fill="#F49F35"/>
<path d="M25.2899 12.2598C25.2899 12.2598 20.9826 12.7822 20.2696 17.4282C19.5566 22.0741 18.8159 21.2981 19.0043 22.6649C19.4068 21.6592 19.9115 20.6964 20.5107 19.7913C21.5409 18.211 20.7207 17.3496 21.2885 16.1749C21.8563 15.0002 21.8563 13.5916 25.2899 12.2598Z" fill="#F49F35"/>
<path d="M33.1036 48.7734L33.0742 48.7821" stroke="#772F33" stroke-miterlimit="10"/>
<path d="M33.2126 26.6421C33.203 27.0485 33.0328 27.435 32.7385 27.719C32.4441 28.003 32.049 28.162 31.6376 28.162C31.2261 28.162 30.831 28.003 30.5366 27.719C30.2423 27.435 30.0721 27.0485 30.0625 26.6421C31.0287 26.6165 32.2041 26.6251 33.2126 26.6421Z" fill="#161326"/>
<path d="M43.2907 26.6261C43.2811 27.0325 43.1109 27.419 42.8166 27.703C42.5223 27.987 42.1271 28.146 41.7157 28.146C41.3042 28.146 40.9091 27.987 40.6148 27.703C40.3204 27.419 40.1503 27.0325 40.1406 26.6261C40.1404 26.5516 40.1459 26.4771 40.1571 26.4033C41.1077 26.2872 42.2485 26.2684 43.2493 26.2718C43.2772 26.3879 43.2911 26.5068 43.2907 26.6261Z" fill="#161326"/>
<path d="M38.7969 28.3516C38.7969 28.3516 39.4304 30.4859 42.2045 31.1902C42.2011 31.1902 38.8522 31.0724 38.7969 28.3516Z" fill="#772F33"/>
<path d="M34.5914 27.9004C34.6078 27.7843 32.9866 31.1113 29.8555 31.3853C29.8555 31.3853 34.0763 31.6594 34.5914 27.9004Z" fill="#772F33"/>
<path d="M33.7988 23.8096C33.7988 23.8096 34.81 25.278 34.7305 26.2563C34.7348 26.2563 35.1271 24.945 33.7988 23.8096Z" fill="#772F33"/>
<path d="M40.9733 29.8583C40.8618 29.7977 42.8357 30.2894 43.6481 29.8583C43.6481 29.8583 42.6577 30.7786 40.9733 29.8583Z" fill="#772F33"/>
<path d="M28.7656 30.2671C29.6087 30.4965 30.4988 30.4965 31.3419 30.2671C31.3419 30.2671 30.0931 31.0286 28.7656 30.2671Z" fill="#772F33"/>
<path d="M37.2871 41.7539C37.2871 41.7539 37.8419 41.0231 39.0838 40.971C39.0838 40.9753 37.6302 40.7098 37.2871 41.7539Z" fill="#772F33"/>
<path d="M35.9924 45.7476C35.9924 45.7476 34.0911 45.9559 33.2441 47.4439C33.2441 47.4439 33.5345 45.7476 35.9924 45.7476Z" fill="#772F33"/>
<path d="M21.9086 27.0656C21.9086 27.0656 20.429 26.1556 20.7194 27.4071C21.0098 28.6587 21.7504 28.161 21.645 29.2691C21.5396 30.3772 21.2993 31.0038 21.2993 31.0038C21.2993 31.0038 22.0054 29.4117 21.8075 28.7842C21.6096 28.1567 20.843 27.9305 20.8568 27.4063C20.8706 26.8821 20.8041 26.8266 21.1213 26.894C21.4384 26.9615 21.9086 27.0656 21.9086 27.0656Z" fill="#772F33"/>
</g>
</g>
<defs>
<linearGradient id="paint0_linear_570_246" x1="32" y1="0.078125" x2="32" y2="63.0781" gradientUnits="userSpaceOnUse">
<stop stop-color="#A7C2E3"/>
<stop offset="1" stop-color="#576F8C"/>
</linearGradient>
<clipPath id="clip0_570_246">
<rect x="0.5" y="0.078125" width="63" height="63" rx="31.5" fill="white"/>
</clipPath>
<clipPath id="clip1_570_246">
<rect width="48" height="58" fill="white" transform="translate(5.5 5.07812)"/>
</clipPath>
</defs>
</svg>
