<svg width="194" height="174" viewBox="0 0 194 174" fill="none" xmlns="http://www.w3.org/2000/svg">
<g clip-path="url(#clip0_570_40)">
<rect y="-56" width="230" height="230" rx="115" fill="url(#paint0_linear_570_40)"/>
<g clip-path="url(#clip1_570_40)">
<path d="M166.216 72.6898L165.768 73.0763C164.92 73.8088 164.191 74.4259 163.598 74.9059L163.443 75.0336L162.954 75.4295L162.67 75.657L162.399 75.8752L162.225 76.0092H162.206C162.175 76.0341 162.146 76.0528 162.127 76.0715L162.08 76.1058C162.08 76.1058 167.094 55.1456 163.79 41.2574C162.948 42.7659 162.358 44.4707 161.222 45.8016C160.943 46.1353 160.639 46.4478 160.313 46.7366C159.455 47.4886 158.49 48.1123 157.448 48.588C156.394 49.0701 155.295 49.4521 154.167 49.7287C153.949 49.7848 153.732 49.8347 153.511 49.8846C153.038 49.9968 152.564 50.0965 152.075 50.1962C150.745 50.5489 149.364 50.6806 147.989 50.5858H147.97C146.167 50.4536 144.447 49.7829 143.039 48.6628C142.592 48.3047 142.177 47.9106 141.796 47.4847V47.4691C141.14 46.7283 140.576 45.9133 140.114 45.0411C139.614 44.1189 139.226 43.1418 138.956 42.1301L139.404 41.4288V41.4132L141.433 38.2341L154.599 38.5645H154.95C158.638 38.4959 161.165 38.39 162.894 38.2778C161.78 35.2358 160.127 32.7237 157.751 31.1342C155.753 29.7492 154.005 28.0436 152.577 26.0881C147.876 28.3197 145.32 29.395 143.929 29.9062L137.429 39.6678C136.531 43.4156 136.584 47.3245 137.584 51.0471C140.673 62.7692 146.844 65.7239 147.617 70.2962C147.617 70.2962 138.221 57.6235 136.795 54.7654C135.89 52.9577 134.94 47.3756 136.297 41.3633L101.707 93.2511C105.433 96.0967 109.424 98.6867 113.195 100.248C123.452 104.496 124.648 108.162 128.5 109.954C128.724 110.057 128.958 110.153 129.204 110.247C129.92 110.509 130.659 110.702 131.412 110.823C135.451 111.518 140.247 110.739 143.373 110.019L143.493 109.988C146.235 105.001 147.929 97.7797 157.748 87.9557C163.629 82.0682 165.759 76.3614 166.491 72.453L166.216 72.6898ZM147.601 72.16C147.633 71.9169 148.466 76.0123 142.572 79.5529C144.156 78.5618 147.137 76.1806 147.611 72.16H147.601ZM142.553 79.5685L142.285 79.7337C142.033 79.8833 141.837 79.983 141.723 80.0454L141.667 80.0734C141.979 79.9051 142.275 79.7368 142.556 79.5685H142.553ZM137.044 78.5213C134.151 75.0929 129.377 75.5199 129.377 75.5199C135.312 73.6716 137.047 78.5213 137.047 78.5213H137.044ZM113.192 90.8605C113.192 90.8605 111.87 87.669 116.306 86.335C116.309 86.335 113.166 88.1926 113.195 90.8605H113.192ZM141.502 91.1005L140.991 91.1192C140.811 91.1192 140.628 91.1379 140.452 91.1504L139.925 91.1909C139.505 91.2283 139.086 91.275 138.679 91.3311L138.537 91.3498L138.136 91.4091L137.707 91.4776L137.467 91.5182C137.363 91.5182 137.259 91.5524 137.152 91.5742L136.675 91.6646L136.211 91.7612C135.953 91.8142 135.703 91.8735 135.457 91.9327L135.195 91.995L134.88 92.0698L134.564 92.154L134.271 92.2319L133.883 92.341C133.567 92.4314 133.252 92.5217 132.984 92.609L132.668 92.7119L132.615 92.7306L132.463 92.7804L132.217 92.8615L132.075 92.9082L131.939 92.955L131.81 93.0017C131.768 93.0139 131.727 93.0284 131.687 93.0453L131.529 93.1015L131.384 93.1544C131.005 93.2916 130.753 93.3976 130.617 93.4474H130.598L130.889 93.2916L131.179 93.142C131.583 92.9363 131.977 92.7462 132.365 92.5685L132.643 92.4438L132.936 92.316L133.312 92.1571L133.678 92.0075C133.921 91.9109 134.161 91.8205 134.394 91.7332C134.627 91.6459 134.81 91.5867 135.025 91.5213L135.454 91.381C135.643 91.3218 135.83 91.2657 136.013 91.2158C136.067 91.1974 136.123 91.1818 136.18 91.1691C136.394 91.1067 136.606 91.0537 136.811 91.0039L137.243 90.9041L137.656 90.8169L138.06 90.7421L138.451 90.6766C138.536 90.66 138.621 90.6475 138.707 90.6392L139.098 90.5894L139.414 90.5551H139.483L139.799 90.5301C139.898 90.5301 139.995 90.5239 140.092 90.5114H140.203H140.518C143.73 90.4242 145.418 91.4028 145.418 91.4028C144.128 91.1667 142.817 91.0653 141.506 91.1005H141.502ZM145.967 84.4307C138.347 87.002 134.441 86.5719 130.147 86.0483C125.853 85.5246 123.78 85.1444 117.801 87.9557C117.801 87.9557 121.998 84.0972 130.677 85.2379C139.357 86.3786 145.405 83.6795 147.664 83.3678C149.923 83.0562 154.091 83.0842 154.546 85.6306C154.451 85.3252 153.236 81.9778 145.97 84.4307H145.967ZM155.432 87.6191C158.392 84.9075 156.959 82.6323 156.754 82.3206C159.528 85.6961 155.612 87.5349 155.429 87.6191H155.432Z" fill="#E2906C"/>
<path d="M142.303 30.3053C144.141 26.5628 146.279 22.9713 148.695 19.5649C143.171 8.14514 141.612 -6.09531 141.612 -6.09531C141.612 -6.09531 138.911 -7.65369 138.413 -1.51992C138.413 -1.51992 135.368 -1.95938 134.803 -5.8148C134.873 -1.27058 134.406 10.7819 128.209 20.4844C130.654 24.0655 131.238 28.376 131.364 29.8128C131.396 30.1245 131.402 30.3084 131.402 30.3084C131.402 30.3084 127.547 29.6445 121.281 28.0643C120.183 28.8978 119.023 29.648 117.81 30.3084C117.81 30.3084 118.633 29.3297 119.804 27.6872C118.586 27.3755 117.28 27.0233 115.92 26.64C114.611 28.2396 113.162 29.7217 111.588 31.0689C109.72 32.6459 108.259 34.7809 107.139 37.2494C106.743 38.1293 106.393 39.0292 106.092 39.9454C106.537 39.9454 106.994 39.9298 107.464 39.9298C114.219 39.9298 120.911 40.4783 124.66 40.8492C126.31 41.0113 127.392 41.1422 127.657 41.1609C127.395 41.1609 126.326 41.1204 124.751 41.0799C124.751 41.0799 123.969 46.955 117.438 49.7289C118.756 49.4081 120.058 49.0222 121.337 48.5726C120.911 48.8344 111.872 54.2513 104.133 50.8914C103.669 58.8516 104.956 66.6217 106.802 69.9036C107.616 70.8698 108.114 71.3747 108.114 71.3747C107.545 71.0161 107.091 70.5062 106.802 69.9036C103.792 66.3349 96.4878 56.4642 94.2413 42.4762L93.7901 42.4388C93.92 42.3513 94.0549 42.2712 94.194 42.1988C93.5404 38.0023 93.3985 33.7435 93.7712 29.5136L93.563 29.5946C91.5784 41.3292 89.5339 60.3165 95.2383 68.2424C101.41 76.8228 103.953 79.1978 104.887 79.8585C100.131 77.2241 95.8314 73.8572 92.1495 69.8849C92.6592 75.0705 92.8205 80.2838 92.6322 85.4905C95.2131 87.9153 98.3587 90.6893 101.713 93.2543L136.29 41.3074C137.087 37.5429 138.842 34.041 141.388 31.1312C139.489 33.6538 138.141 36.5385 137.429 39.6025L143.912 29.8409C142.486 30.3738 142.303 30.3053 142.303 30.3053ZM104.89 79.8616C105.205 80.0237 105.36 80.1048 105.36 80.1048C105.36 80.1048 105.24 80.0954 104.89 79.8523V79.8616Z" fill="#C1775D"/>
<path d="M189.601 7.90808C183.493 -6.52561 149.907 -17.961 144.637 -24.6776C139.368 -31.3942 121.854 -43.1163 103.044 -34.9629C84.2329 -26.8094 82.2199 -21.3832 82.2199 -21.3832C77.0392 -19.3604 71.1549 -16.5896 67.4508 -12.3789C63.1094 -7.4544 66.3654 -0.818836 63.7719 5.83855C61.1784 12.4959 58.5629 16.6132 60.3013 30.3082C62.0398 44.0032 66.1604 82.2863 48.5801 93.4817C48.5801 93.4817 53.8554 95.5387 58.626 87.7094C56.1587 94.9029 54.3697 106.69 63.5542 116.543C63.5542 116.543 58.1054 93.3851 62.7371 86.335C62.7371 86.335 61.841 110.54 70.8741 116.543L78.6767 121.046L79.0269 121.249L79.1941 121.402L83.3967 97.1407L83.7691 95.0027C90.2181 103.496 98.0806 109.224 101.785 111.662C98.1879 109.081 91.3729 102.545 92.3383 90.5052C92.474 88.7878 92.5687 87.1173 92.6255 85.5028C92.8137 80.2961 92.6525 75.0828 92.1427 69.8972C95.8247 73.8695 100.124 77.2364 104.88 79.8708C103.933 79.2101 101.409 76.8351 95.2316 68.2547C89.5271 60.3319 91.5716 41.3446 93.5562 29.6069C93.7455 28.4942 93.9348 27.447 94.1147 26.4902C94.1147 26.4902 94.1841 18.5206 109.467 7.16629C124.751 -4.18804 126.344 -11.9145 126.344 -11.9145C126.344 -11.9145 128.512 -3.76728 127.209 4.09318C128.427 8.41923 127.335 13.2814 125.521 17.6355C123.986 21.1932 122.067 24.5768 119.797 27.7275C120.308 27.8584 120.804 27.9862 121.283 28.1046C124.036 26.0069 126.387 23.4398 128.225 20.5247C134.421 10.8223 134.888 -1.23024 134.819 -5.77447C134.735 -6.38789 134.711 -7.00783 134.746 -7.62582C134.746 -7.62582 134.8 -6.9526 134.819 -5.77447C135.384 -1.91904 138.428 -1.47958 138.428 -1.47958C138.927 -7.62582 141.628 -6.05498 141.628 -6.05498C141.628 -6.05498 143.186 8.18547 148.711 19.6053C148.997 20.2016 149.295 20.7886 149.607 21.3662C150.477 23.0047 151.473 24.5749 152.585 26.0632C154.013 28.0187 155.762 29.7243 157.76 31.1092C160.135 32.6987 161.789 35.2108 162.902 38.2528C163.951 38.2034 164.995 38.0994 166.032 37.9411C166.566 37.8476 166.629 37.7822 166.629 37.7822C166.629 37.7822 167.19 38.5582 166.174 39.1348C165.713 39.3722 165.213 39.5273 164.698 39.593C164.698 39.593 164.404 40.2164 163.805 41.2885C167.108 55.1892 162.095 76.165 162.095 76.165L162.142 76.1307C162.161 76.112 162.189 76.0933 162.221 76.0684H162.24L162.413 75.9344L162.685 75.7162L162.969 75.4887L163.458 75.0928L163.612 74.965C164.199 74.4851 164.934 73.868 165.783 73.1355L166.231 72.749L166.502 72.5122C167.077 72.0104 167.692 71.4618 168.339 70.8696C168.433 70.7855 168.528 70.7013 168.623 70.6109L169.538 69.7663C171.866 67.5846 174.497 64.9696 177.072 62.0586C177.814 57.826 180.104 54.8277 183.508 43.277C188.576 26.0756 169.039 10.1147 162.095 2.54103C155.15 -5.03268 159.034 -7.67569 159.034 -7.67569C158.593 -1.3892 173.655 9.61918 186.821 28.3415C194.047 38.6268 185.875 52.0008 177.056 62.0025C176.693 64.0689 176.7 66.4345 177.126 70.2338C178.429 81.8125 177.277 107.255 156.583 116.546C156.583 116.546 170.396 99.4035 164.19 84.0597C163.311 85.1771 162.312 86.197 161.211 87.1017C155.065 92.1228 150.168 101.591 147.976 106.301C147.922 106.419 147.865 106.535 147.802 106.647V106.666C147.745 106.772 147.685 106.877 147.619 106.977C147.553 107.077 147.499 107.167 147.436 107.261C147.421 107.286 147.404 107.31 147.386 107.333C147.335 107.407 147.281 107.482 147.225 107.554L147.165 107.629C147.121 107.688 147.073 107.744 147.023 107.8C146.986 107.848 146.948 107.894 146.906 107.937C146.871 107.978 146.833 108.018 146.796 108.056C146.758 108.093 146.72 108.137 146.682 108.174C146.644 108.211 146.527 108.327 146.449 108.402C146.37 108.476 146.262 108.567 146.168 108.645C146.073 108.723 146.048 108.744 145.985 108.788C145.922 108.832 145.912 108.844 145.874 108.872C145.838 108.902 145.8 108.929 145.761 108.953C145.679 109.012 145.593 109.069 145.508 109.125C145.414 109.185 145.319 109.241 145.224 109.293C145.172 109.327 145.117 109.357 145.06 109.383H145.041L144.88 109.467C144.776 109.517 144.672 109.567 144.565 109.611L144.445 109.664L144.29 109.723L144.208 109.754H144.189C144.12 109.783 144.048 109.807 143.975 109.826H143.94L143.846 109.857H143.814C143.754 109.877 143.693 109.894 143.631 109.907L143.577 109.923L143.508 109.941L143.388 109.972C140.249 110.692 135.466 111.472 131.427 110.777C130.674 110.655 129.934 110.462 129.218 110.2L128.793 110.468C130.02 112.946 131.708 116.125 134.024 120.211C139.476 129.829 140.334 136.798 139.965 141.18C144.095 137.013 153.765 127.707 160.214 125.07C160.214 125.07 157.463 134.935 150.086 137.649C150.086 137.649 164.433 142.948 175.778 114.495C175.778 114.495 184.521 100.345 180.906 77.7608C177.29 55.1768 188.967 64.1374 191.156 48.0082C193.346 31.879 195.706 22.348 189.601 7.90808ZM77.2159 60.7651C74.919 60.9022 74.9568 58.5304 73.6727 54.4381C72.0951 49.364 69.3313 47.2197 71.9342 40.6153C74.0355 35.295 79.049 38.1063 80.9137 39.3966C79.2454 46.4392 78.0106 53.5751 77.2159 60.7651Z" fill="#161326"/>
<path d="M121.283 28.0641C120.185 28.8976 119.025 29.6478 117.812 30.3082C117.812 30.3082 118.636 29.3295 119.807 27.687C120.308 27.8179 120.804 27.9457 121.283 28.0641Z" fill="#161326"/>
<path d="M149.593 21.3259L143.913 29.8409C142.478 30.3738 142.295 30.3053 142.295 30.3053C144.133 26.5628 146.271 22.9713 148.687 19.5649C148.982 20.1613 149.283 20.7483 149.593 21.3259Z" fill="#161326"/>
<path d="M152.57 26.0226C147.869 28.2542 145.313 29.3295 143.922 29.8407L149.601 21.3257C150.468 22.9638 151.461 24.5341 152.57 26.0226Z" fill="#2E2D33"/>
<path d="M125.521 17.595C124.646 16.9125 123.671 16.364 122.631 15.9681C124.512 12.1384 126.044 8.15091 127.209 4.05273C128.427 8.37879 127.335 13.2409 125.521 17.595Z" fill="#C1775D"/>
<path d="M125.521 17.595C123.987 21.1527 122.068 24.5363 119.798 27.687C118.58 27.3753 117.274 27.0232 115.914 26.6398C118.562 23.3505 120.817 19.7694 122.631 15.968C123.672 16.364 124.646 16.9124 125.521 17.595Z" fill="#161326"/>
<path d="M131.405 30.3084C131.405 30.3084 127.549 29.6445 121.283 28.0643C124.036 25.9665 126.387 23.3995 128.224 20.4844C130.67 24.0655 131.253 28.376 131.38 29.8128C131.398 30.1307 131.405 30.3084 131.405 30.3084Z" fill="#161326"/>
<path d="M166.16 39.0913C165.699 39.3287 165.199 39.4838 164.683 39.5495C164.246 39.6091 163.806 39.6414 163.364 39.6461C163.219 39.6461 163.065 39.6461 162.904 39.6461H162.512C161.667 39.6461 160.651 39.6461 159.518 39.6461H158.597H158.427C152.385 39.59 143.831 39.5776 139.704 41.2357C139.606 41.2731 139.515 41.3136 139.423 41.3541L139.389 41.3697L139.417 41.3541L139.455 41.3354L139.524 41.298C139.587 41.2637 139.673 41.2201 139.777 41.1733L139.865 41.1297L139.944 41.0923L140.08 41.03L140.323 40.924L140.487 40.8554L140.853 40.7121L141.058 40.6341L141.54 40.4627C141.654 40.4222 141.771 40.3817 141.897 40.3443L142.112 40.2757L142.563 40.1386C143.269 39.9329 144.106 39.7178 145.087 39.5152L145.749 39.3812C145.98 39.3376 146.216 39.2939 146.459 39.2534L147.109 39.1475C147.81 39.0415 148.563 38.9428 149.368 38.8514C149.684 38.8171 150.018 38.7828 150.359 38.7516L150.876 38.708C152.012 38.6145 153.244 38.5511 154.571 38.5179H154.921C158.61 38.4493 161.137 38.3433 162.866 38.2311C163.914 38.1818 164.959 38.0777 165.996 37.9195C166.529 37.826 166.592 37.7605 166.592 37.7605C166.592 37.7605 167.176 38.5147 166.16 39.0913Z" fill="#161326"/>
<path d="M147.61 70.2433C147.61 70.2433 138.214 57.5705 136.788 54.7125C135.883 52.9048 134.933 47.3226 136.29 41.3104C137.087 37.5449 138.842 34.0418 141.388 31.1311C139.489 33.6537 138.141 36.5384 137.429 39.6024C136.53 43.3502 136.583 47.2591 137.583 50.9817C140.666 62.7038 146.837 65.6585 147.61 70.2433Z" fill="#772F33"/>
<path d="M142.582 79.5529C144.16 78.5618 147.138 76.1806 147.611 72.16C147.643 71.9169 148.476 76.0123 142.582 79.5529Z" fill="#772F33"/>
<path d="M137.048 78.5213C134.155 75.0929 129.381 75.5199 129.381 75.5199C135.312 73.6717 137.048 78.5213 137.048 78.5213Z" fill="#772F33"/>
<path d="M154.549 85.6432C154.451 85.3315 153.237 81.9779 145.97 84.4308C138.351 87.0021 134.445 86.572 130.151 86.0484C125.857 85.5248 123.784 85.1445 117.805 87.9558C117.805 87.9558 122.001 84.0973 130.681 85.238C139.36 86.3787 145.409 83.6796 147.668 83.368C149.927 83.0563 154.095 83.0968 154.549 85.6432Z" fill="#772F33"/>
<path d="M145.392 91.3844C138.674 90.1377 130.954 93.3074 130.562 93.4757C140.141 88.3393 145.392 91.3844 145.392 91.3844Z" fill="#772F33"/>
<path d="M155.43 87.6193C158.389 84.9077 156.957 82.6325 156.752 82.3208C159.528 85.6962 155.613 87.5351 155.43 87.6193Z" fill="#772F33"/>
<path d="M116.308 86.335C116.308 86.335 113.153 88.205 113.194 90.8605C113.194 90.8605 111.872 87.6689 116.308 86.335Z" fill="#772F33"/>
<path d="M80.9154 39.3873C79.2471 46.4298 78.0123 53.5657 77.2176 60.7558C74.9207 60.8929 74.9586 58.5211 73.6744 54.4288C72.0969 49.3547 69.333 47.2104 71.936 40.606C74.0373 35.295 79.0507 38.1063 80.9154 39.3873Z" fill="#B26D57"/>
<path d="M128.767 110.515C125.35 112.697 120.914 116.393 119.113 121.52C119.049 121.611 118.983 121.704 118.917 121.804C116.194 122.586 112.878 123.026 109.452 122.268C103.04 120.85 89.5743 104.702 83.3809 97.1253L83.7532 94.9872C90.2022 103.48 98.0648 109.209 101.769 111.646C102.427 112.128 103.12 112.561 103.842 112.943C103.611 112.803 102.895 112.372 101.794 111.662C98.1973 109.081 91.3822 102.545 92.3477 90.5053C92.4834 88.788 92.578 87.1174 92.6348 85.5029C95.2157 87.9278 98.3613 90.7017 101.715 93.2668C105.441 96.1124 109.433 98.7024 113.203 100.264C123.46 104.512 124.656 108.177 128.508 109.969L128.767 110.515Z" fill="#A6554B"/>
<path d="M123.887 146.993C117.726 157.992 81.9434 123.967 79.1953 121.389L83.3979 97.1284C89.5883 104.705 103.057 120.853 109.469 122.271C112.886 123.029 116.202 122.583 118.934 121.807L118.871 121.903C118.842 121.947 118.811 121.994 118.783 122.044C118.71 122.159 118.637 122.281 118.568 122.408L118.445 122.633C118.41 122.695 118.379 122.761 118.344 122.826C118.19 123.13 118.052 123.443 117.931 123.761C117.893 123.861 117.852 123.964 117.817 124.073C117.56 124.804 117.374 125.557 117.262 126.323C117.24 126.473 117.218 126.635 117.202 126.781C117.186 126.928 117.17 127.093 117.158 127.236C117.156 127.265 117.156 127.294 117.158 127.324C117.158 127.398 117.158 127.479 117.158 127.557C117.126 128.046 117.119 128.536 117.139 129.025C117.139 129.215 117.139 129.409 117.17 129.605C117.202 129.801 117.199 130.001 117.221 130.203C117.243 130.406 117.265 130.612 117.293 130.827C117.418 131.731 117.599 132.628 117.836 133.51C119.085 138.304 121.13 142.86 123.887 146.993Z" fill="#C1775D"/>
<path d="M183.493 43.2179C188.56 26.0166 169.024 10.0557 162.079 2.48196C155.135 -5.09175 159.035 -7.67554 159.035 -7.67554C158.593 -1.38904 173.655 9.61933 186.822 28.3417C194.047 38.627 185.875 52.0009 177.057 62.0026C177.798 57.7763 180.089 54.7686 183.493 43.2179Z" fill="#F49F35"/>
<path d="M169.522 69.7073C169.272 72.5342 168.26 78.8892 164.19 84.0443C163.311 85.1617 162.312 86.1816 161.211 87.0863C155.065 92.1074 150.168 101.576 147.975 106.285C147.922 106.404 147.865 106.519 147.802 106.631V106.65C147.745 106.756 147.685 106.862 147.619 106.962C147.553 107.062 147.499 107.152 147.436 107.245C147.421 107.271 147.404 107.295 147.385 107.317C147.335 107.392 147.281 107.467 147.225 107.538L147.165 107.613C147.12 107.672 147.073 107.729 147.023 107.785C146.986 107.833 146.947 107.878 146.906 107.922C146.871 107.962 146.833 108.003 146.795 108.04C146.758 108.078 146.72 108.121 146.682 108.159C146.644 108.196 146.527 108.311 146.448 108.386C146.37 108.461 146.262 108.551 146.168 108.629C146.073 108.707 146.048 108.729 145.985 108.773C145.921 108.816 145.912 108.829 145.874 108.857C145.838 108.886 145.8 108.913 145.761 108.938C145.679 108.997 145.593 109.053 145.508 109.109C145.413 109.17 145.319 109.226 145.224 109.278C145.172 109.311 145.117 109.341 145.06 109.368H145.041L144.88 109.452C144.776 109.502 144.672 109.552 144.565 109.595L144.445 109.648L144.29 109.708L144.208 109.739H144.189L143.975 109.811H143.94L143.845 109.842H143.814C143.754 109.862 143.693 109.878 143.631 109.892L143.577 109.907L143.508 109.926C146.25 104.939 147.944 97.7175 157.763 87.8935C163.644 82.006 165.773 76.2992 166.505 72.3908C167.08 71.889 167.695 71.3404 168.342 70.7483C168.436 70.6641 168.531 70.58 168.626 70.4896L169.522 69.7073Z" fill="#F8F4A9"/>
<path d="M156.584 116.543C156.584 116.543 170.397 99.4005 164.191 84.0568C168.267 78.8892 169.274 72.5248 169.523 69.7197C171.852 67.538 174.483 64.923 177.058 62.012C176.695 64.0784 176.701 66.444 177.127 70.2433C178.43 81.8096 177.278 107.252 156.584 116.543Z" fill="#24213C"/>
<path d="M178.284 174H174.968C174.943 169.238 170.015 159.454 159.281 156.858C153.333 155.444 147.775 152.749 143.004 148.966C147.894 151.108 156.104 154.408 164.683 156.574C178.284 160.006 178.284 174 178.284 174Z" fill="#A2D8DB"/>
<path d="M174.968 174H18.2539V149.175C23.1727 131.494 45.4573 127.501 58.9549 126.457C67.521 125.793 73.2791 123.708 76.3427 122.271C81.3057 127.623 108.209 155.658 121.656 149.699L122.022 149.531C122.313 149.39 122.59 149.244 122.852 149.088C122.959 149.029 123.06 148.966 123.168 148.901L123.3 148.817C123.395 148.758 123.483 148.695 123.572 148.633C123.66 148.571 123.767 148.496 123.862 148.424L123.912 148.387C124.016 148.306 124.121 148.225 124.228 148.141C124.335 148.056 124.43 147.969 124.528 147.882L124.758 147.667C124.968 147.459 125.167 147.251 125.354 147.043C125.4 146.993 125.443 146.94 125.484 146.885C125.518 146.844 125.553 146.803 125.585 146.76C125.616 146.716 125.704 146.607 125.758 146.529C125.992 146.209 126.203 145.872 126.389 145.522C126.436 145.435 126.481 145.348 126.525 145.261C126.656 144.987 126.772 144.707 126.875 144.422L126.957 144.201L127.061 143.889C128.087 144.07 129.235 144.469 130.112 144.7L138.407 146.856C138.407 146.856 140.133 147.714 142.998 148.97C147.769 152.752 153.327 155.447 159.275 156.861C170.015 159.454 174.943 169.238 174.968 174Z" fill="#B8DFE5"/>
<path d="M121.332 48.585C120.906 48.8469 111.866 54.2638 104.127 50.9039C101.186 49.6292 98.4257 47.089 96.3906 42.523C96.968 42.523 97.5896 42.4887 98.1953 42.4232C98.3279 42.4232 98.4604 42.3952 98.5897 42.3765C99.5217 45.25 101.562 47.6452 104.269 49.0432C107.109 50.5112 111.311 51.2249 117.432 49.7414C118.751 49.4206 120.052 49.0346 121.332 48.585Z" fill="#161326"/>
<path d="M106.795 69.9035C103.785 66.3348 96.4808 56.4641 94.2344 42.4761C94.7045 42.5041 95.4964 42.5446 96.3893 42.5322C98.4244 47.0982 101.185 49.6384 104.126 50.9131C103.662 58.864 104.949 66.634 106.795 69.9035Z" fill="#24213C"/>
<path d="M124.745 41.0922C120.155 40.9738 111.279 40.7993 105.742 41.0424C103.3 41.1483 101.505 41.3353 101.009 41.6439C100.261 42.0517 99.4345 42.3011 98.583 42.3763C98.4537 42.395 98.3211 42.4106 98.1886 42.4231C97.5829 42.4885 96.9613 42.5166 96.3839 42.5228C95.4879 42.5228 94.6991 42.4948 94.229 42.4667L94.1816 42.1893C94.8852 41.8122 96.5638 41.0704 99.5895 40.5406C101.734 40.1778 103.904 39.9788 106.08 39.9453C106.524 39.9453 106.982 39.9297 107.452 39.9297C114.207 39.9297 120.899 40.4782 124.647 40.8491L124.745 41.0922Z" fill="#161326"/>
<path d="M124.746 41.0923C124.746 41.0923 123.963 46.9674 117.432 49.7413C111.311 51.2187 107.118 50.5112 104.269 49.0432C101.562 47.6451 99.5218 45.25 98.5898 42.3764C99.4413 42.3012 100.268 42.0517 101.016 41.644C101.502 41.3323 103.297 41.1484 105.749 41.0425C106.43 41.0113 107.165 40.9895 107.935 40.9708C111.463 40.8866 115.754 40.9178 119.436 40.9708C121.464 41.0144 123.313 41.0549 124.746 41.0923Z" fill="white"/>
<path d="M140.086 44.9975C139.586 44.0753 139.197 43.0982 138.928 42.0865L139.376 41.3852V41.3696H139.401C139.373 41.9477 139.412 42.5271 139.518 43.0963L139.546 43.2522C139.546 43.2864 139.546 43.3207 139.568 43.355C139.59 43.3893 139.584 43.4392 139.593 43.4828C139.603 43.5264 139.628 43.6417 139.65 43.7228C139.672 43.8038 139.71 43.9565 139.745 44.075C139.84 44.3888 139.954 44.6968 140.086 44.9975Z" fill="#161326"/>
<path d="M164.682 39.5496C164.682 39.5496 164.389 40.1729 163.789 41.2451C162.947 42.7536 162.357 44.4585 161.221 45.7893C160.942 46.123 160.638 46.4355 160.312 46.7243C159.454 47.4763 158.489 48.1 157.447 48.5757C156.393 49.0578 155.294 49.4398 154.166 49.7164C153.948 49.7725 153.731 49.8224 153.51 49.8723C153.037 49.9845 152.563 50.0842 152.074 50.1839C152.407 50.1008 152.747 50.0042 153.096 49.8941C153.314 49.8255 153.526 49.7538 153.727 49.6821H153.746C154.516 49.4182 155.271 49.1144 156.009 48.772H156.028C159.953 46.4625 161.975 41.2544 162.505 39.6992H162.896C163.057 39.6992 163.212 39.6992 163.357 39.6992C163.801 39.6772 164.244 39.6272 164.682 39.5496Z" fill="#161326"/>
<path d="M154.579 38.5085C153.252 38.5396 152.02 38.603 150.885 38.6986C149.49 38.8108 148.237 38.9635 147.117 39.1381L146.467 39.244C144.923 39.498 143.399 39.8637 141.908 40.338C141.782 40.3754 141.665 40.4159 141.552 40.4565C141.381 40.5126 141.22 40.5718 141.069 40.6279C140.785 40.7307 140.542 40.8305 140.334 40.9177L140.091 41.0237L139.955 41.086L139.876 41.1234C139.64 41.2325 139.491 41.3136 139.425 41.351H139.406L141.435 38.1719L154.579 38.5085Z" fill="#161326"/>
<path d="M162.527 39.6616C161.997 41.22 159.975 46.4249 156.05 48.7345H156.031C155.293 49.0769 154.538 49.3807 153.768 49.6446H153.75C153.541 49.7162 153.33 49.7879 153.118 49.8565C152.767 49.9666 152.426 50.0632 152.096 50.1464C150.766 50.499 149.385 50.6307 148.01 50.5359H147.991C146.188 50.4037 144.468 49.733 143.06 48.6129C142.613 48.2548 142.198 47.8607 141.817 47.4348V47.4192C141.161 46.6784 140.597 45.8634 140.135 44.9912C140.006 44.6862 139.896 44.374 139.804 44.0562C139.769 43.9378 139.738 43.8193 139.709 43.704C139.681 43.5887 139.668 43.542 139.652 43.464C139.637 43.3861 139.634 43.3768 139.627 43.3363C139.621 43.2957 139.611 43.2677 139.605 43.2334L139.577 43.0776C139.471 42.5083 139.432 41.929 139.46 41.3509C139.552 41.3104 139.643 41.2698 139.741 41.2324C141.369 40.6505 143.065 40.2725 144.789 40.1073C148.26 39.6834 152.424 39.6148 156.078 39.6273L158.454 39.6429H158.624H159.545C160.65 39.6616 161.666 39.6678 162.527 39.6616Z" fill="white"/>
<path d="M127.067 143.876L126.963 144.188L126.874 144.422C126.767 144.707 126.644 144.987 126.508 145.26C126.464 145.348 126.42 145.435 126.373 145.522C126.186 145.872 125.976 146.208 125.742 146.529C125.688 146.607 125.628 146.685 125.568 146.759C125.508 146.834 125.502 146.844 125.467 146.884C125.432 146.925 125.385 146.99 125.338 147.043C125.153 147.261 124.954 147.469 124.741 147.666L124.511 147.881C124.413 147.969 124.315 148.056 124.211 148.14C124.107 148.224 124.009 148.305 123.896 148.386L123.845 148.424C123.751 148.495 123.653 148.564 123.555 148.633C123.457 148.701 123.378 148.757 123.284 148.817L123.151 148.901C123.05 148.966 122.949 149.028 122.836 149.088C122.574 149.243 122.296 149.399 122.006 149.53L121.64 149.699C108.186 155.655 81.2892 127.619 76.3262 122.271C77.126 121.9 77.9034 121.484 78.6546 121.024L79.0049 121.227L79.1721 121.38C81.9202 123.957 117.705 157.983 123.864 146.984C124.229 146.302 124.477 145.564 124.596 144.802C124.801 143.739 125.846 143.652 127.067 143.876Z" fill="#8DD3D3"/>
<path d="M124.619 144.796C124.499 145.558 124.252 146.296 123.887 146.978C121.121 142.852 119.065 138.303 117.804 133.513C117.567 132.631 117.386 131.735 117.261 130.83C117.233 130.621 117.208 130.415 117.189 130.207C117.17 129.998 117.151 129.804 117.138 129.608C117.126 129.412 117.113 129.219 117.107 129.028C117.087 128.539 117.094 128.049 117.126 127.56C117.126 127.482 117.126 127.401 117.126 127.327C117.124 127.298 117.124 127.268 117.126 127.239C117.126 127.084 117.151 126.928 117.17 126.784C117.189 126.641 117.208 126.473 117.23 126.326C117.342 125.56 117.528 124.807 117.785 124.076C117.82 123.97 117.861 123.867 117.899 123.764C118.02 123.446 118.158 123.134 118.312 122.829C118.347 122.764 118.378 122.698 118.413 122.636L118.536 122.412C118.605 122.284 118.678 122.162 118.75 122.047C118.779 122 118.807 121.953 118.839 121.907L118.902 121.81C118.968 121.71 119.034 121.617 119.097 121.526L119.009 121.779C118.061 124.674 118.037 127.787 118.94 130.696C123.303 145.557 124.619 144.796 124.619 144.796Z" fill="#C1775D"/>
<path d="M127.209 4.05274C126.044 8.15092 124.512 12.1385 122.631 15.9681C120.816 19.7694 118.562 23.3505 115.914 26.6399C114.605 28.2395 113.155 29.7216 111.582 31.0688C109.714 32.6458 108.253 34.7808 107.133 37.2493C106.736 38.1292 106.387 39.0291 106.086 39.9453C103.91 39.9788 101.74 40.1778 99.5957 40.5406C96.57 41.0704 94.8915 41.8122 94.1879 42.1893C93.5343 37.9928 93.3924 33.7341 93.7651 29.5042C93.8503 28.5037 93.9639 27.4876 94.1153 26.4591C94.1153 26.4591 94.1847 18.4895 109.468 7.13521C124.751 -4.21913 126.345 -11.9456 126.345 -11.9456C126.345 -11.9456 128.512 -3.80771 127.209 4.05274Z" fill="#24213C"/>
<path d="M87.7078 39.9298C87.834 39.3376 80.41 64.9511 83.7702 76.882C87.1304 88.8129 88.4303 93.4756 88.4303 93.4756C88.4303 93.4756 84.4391 76.5922 85.638 70.5176C86.837 64.443 83.2212 60.8712 87.7078 39.9298Z" fill="#F49F35"/>
<path d="M90.5069 -11.5278C90.5069 -11.5278 74.7818 -9.62038 72.1788 7.34099C69.5759 24.3024 66.8719 21.4692 67.5597 26.4592C69.029 22.7874 70.8715 19.2724 73.0591 15.9682C76.82 10.1991 73.8258 7.05426 75.8987 2.7656C77.9716 -1.52305 77.9716 -6.6657 90.5069 -11.5278Z" fill="#F49F35"/>
<path d="M119.031 121.775L118.924 121.807" stroke="#772F33" stroke-miterlimit="10"/>
<path d="M119.428 40.9802C119.393 42.4636 118.772 43.8746 117.697 44.9115C116.623 45.9484 115.18 46.5289 113.678 46.5289C112.176 46.5289 110.733 45.9484 109.659 44.9115C108.584 43.8746 107.963 42.4636 107.928 40.9802C111.455 40.8867 115.746 40.9178 119.428 40.9802Z" fill="#161326"/>
<path d="M156.217 40.9208C156.182 42.4042 155.561 43.8152 154.486 44.8521C153.412 45.889 151.969 46.4695 150.467 46.4695C148.965 46.4695 147.522 45.889 146.448 44.8521C145.373 43.8152 144.752 42.4042 144.717 40.9208C144.716 40.6485 144.736 40.3766 144.777 40.1073C148.247 39.6834 152.412 39.6148 156.066 39.6273C156.168 40.0511 156.219 40.4852 156.217 40.9208Z" fill="#161326"/>
<path d="M139.81 47.2197C139.81 47.2197 142.123 55.0116 152.251 57.5829C152.238 57.5829 140.012 57.1528 139.81 47.2197Z" fill="#772F33"/>
<path d="M124.458 45.5741C124.518 45.1502 118.599 57.2962 107.168 58.2967C107.168 58.2967 122.577 59.2971 124.458 45.5741Z" fill="#772F33"/>
<path d="M121.564 30.6387C121.564 30.6387 125.256 35.9995 124.965 39.5713C124.981 39.5713 126.414 34.784 121.564 30.6387Z" fill="#772F33"/>
<path d="M147.755 52.7209C147.348 52.4996 154.554 54.2948 157.52 52.7209C157.52 52.7209 153.904 56.0807 147.755 52.7209Z" fill="#772F33"/>
<path d="M103.189 54.2139C106.267 55.0513 109.517 55.0513 112.595 54.2139C112.595 54.2139 108.035 56.994 103.189 54.2139Z" fill="#772F33"/>
<path d="M134.299 96.1496C134.299 96.1496 136.324 93.4817 140.858 93.2915C140.858 93.3071 135.551 92.3378 134.299 96.1496Z" fill="#772F33"/>
<path d="M129.572 110.73C129.572 110.73 122.631 111.49 119.539 116.923C119.539 116.923 120.599 110.73 129.572 110.73Z" fill="#772F33"/>
<path d="M78.1568 42.5259C78.1568 42.5259 72.7552 39.2035 73.8154 43.7726C74.8755 48.3418 77.5794 46.5247 77.1945 50.5703C76.8096 54.6158 75.9324 56.9035 75.9324 56.9035C75.9324 56.9035 78.5102 51.0908 77.7876 48.8C77.0651 46.5092 74.2665 45.6832 74.317 43.7695C74.3675 41.8558 74.1246 41.6533 75.2825 41.8995C76.4404 42.1457 78.1568 42.5259 78.1568 42.5259Z" fill="#772F33"/>
</g>
</g>
<defs>
<linearGradient id="paint0_linear_570_40" x1="115" y1="-56" x2="115" y2="174" gradientUnits="userSpaceOnUse">
<stop stop-color="#A7C2E3"/>
<stop offset="1" stop-color="#576F8C"/>
</linearGradient>
<clipPath id="clip0_570_40">
<rect y="-56" width="230" height="230" rx="115" fill="white"/>
</clipPath>
<clipPath id="clip1_570_40">
<rect width="175.238" height="211.746" fill="white" transform="translate(18.2539 -37.7461)"/>
</clipPath>
</defs>
</svg>
