<svg width="24" height="25" viewBox="0 0 24 25" fill="none" xmlns="http://www.w3.org/2000/svg">
<path d="M12 3.31226C12.1989 3.31226 12.3897 3.39127 12.5303 3.53193C12.671 3.67258 12.75 3.86334 12.75 4.06226C12.75 4.26117 12.671 4.45193 12.5303 4.59259C12.3897 4.73324 12.1989 4.81226 12 4.81226C10.0772 4.81226 8.23311 5.57609 6.87348 6.93573C5.51384 8.29537 4.75 10.1394 4.75 12.0623C4.75 13.9851 5.51384 15.8291 6.87348 17.1888C8.23311 18.5484 10.0772 19.3123 12 19.3123C12.1989 19.3123 12.3897 19.3913 12.5303 19.5319C12.671 19.6726 12.75 19.8633 12.75 20.0623C12.75 20.2612 12.671 20.4519 12.5303 20.5926C12.3897 20.7332 12.1989 20.8123 12 20.8123C9.67936 20.8123 7.45376 19.8904 5.81282 18.2494C4.17187 16.6085 3.25 14.3829 3.25 12.0623C3.25 9.74161 4.17187 7.51602 5.81282 5.87507C7.45376 4.23413 9.67936 3.31226 12 3.31226Z" fill="white"/>
<path d="M16.47 9.59235C16.3375 9.45017 16.2654 9.26213 16.2688 9.06782C16.2723 8.87352 16.351 8.68814 16.4884 8.55073C16.6258 8.41331 16.8112 8.3346 17.0055 8.33117C17.1998 8.32774 17.3878 8.39987 17.53 8.53235L20.53 11.5323C20.6705 11.673 20.7493 11.8636 20.7493 12.0623C20.7493 12.2611 20.6705 12.4517 20.53 12.5923L17.53 15.5923C17.4613 15.666 17.3785 15.7251 17.2865 15.7661C17.1945 15.8071 17.0952 15.8292 16.9945 15.8309C16.8938 15.8327 16.7938 15.8142 16.7004 15.7765C16.607 15.7387 16.5222 15.6826 16.451 15.6114C16.3797 15.5402 16.3236 15.4553 16.2859 15.3619C16.2482 15.2686 16.2296 15.1685 16.2314 15.0678C16.2332 14.9671 16.2552 14.8678 16.2962 14.7758C16.3372 14.6838 16.3963 14.601 16.47 14.5323L18.19 12.8123H10C9.80109 12.8123 9.61032 12.7333 9.46967 12.5927C9.32902 12.452 9.25 12.2613 9.25 12.0623C9.25 11.8634 9.32902 11.6727 9.46967 11.532C9.61032 11.3914 9.80109 11.3123 10 11.3123H18.19L16.47 9.59235Z" fill="white"/>
</svg>
